solid OpenSCAD_Model
  facet normal 0.996917 0.0784596 0
    outer loop
      vertex 25 0 5
      vertex 24.8769 1.56434 0
      vertex 24.8769 1.56434 5
    endloop
  endfacet
  facet normal 0.996917 0.0784596 0
    outer loop
      vertex 24.8769 1.56434 0
      vertex 25 0 5
      vertex 25 0 0
    endloop
  endfacet
  facet normal -0.996917 0.0784596 0
    outer loop
      vertex -25 0 0
      vertex -24.8769 1.56434 5
      vertex -24.8769 1.56434 0
    endloop
  endfacet
  facet normal -0.996917 0.0784596 0
    outer loop
      vertex -24.8769 1.56434 5
      vertex -25 0 0
      vertex -25 0 5
    endloop
  endfacet
  facet normal 0 -1 0
    outer loop
      vertex -15 -10 0
      vertex -8 -10 5
      vertex -15 -10 5
    endloop
  endfacet
  facet normal 0 -1 -0
    outer loop
      vertex -8 -10 5
      vertex -15 -10 0
      vertex -5 -10 5
    endloop
  endfacet
  facet normal 0 -1 -0
    outer loop
      vertex -5 -10 5
      vertex -15 -10 0
      vertex 5 -10 5
    endloop
  endfacet
  facet normal 0 -1 0
    outer loop
      vertex 15 -10 0
      vertex 5 -10 5
      vertex -15 -10 0
    endloop
  endfacet
  facet normal 0 -1 0
    outer loop
      vertex 5 -10 5
      vertex 15 -10 0
      vertex 8 -10 5
    endloop
  endfacet
  facet normal 0 -1 0
    outer loop
      vertex 8 -10 5
      vertex 15 -10 0
      vertex 15 -10 5
    endloop
  endfacet
  facet normal 0 -1 0
    outer loop
      vertex -8 -10 20
      vertex -5 -10 16
      vertex 8 -10 20
    endloop
  endfacet
  facet normal 0 -1 0
    outer loop
      vertex -8 -10 5
      vertex -5 -10 16
      vertex -8 -10 20
    endloop
  endfacet
  facet normal 0 -1 -0
    outer loop
      vertex -5 -10 16
      vertex -8 -10 5
      vertex -5 -10 5
    endloop
  endfacet
  facet normal 0 -1 0
    outer loop
      vertex 5 -10 16
      vertex 8 -10 20
      vertex -5 -10 16
    endloop
  endfacet
  facet normal 0 -1 0
    outer loop
      vertex 8 -10 5
      vertex 5 -10 16
      vertex 5 -10 5
    endloop
  endfacet
  facet normal 0 -1 0
    outer loop
      vertex 5 -10 16
      vertex 8 -10 5
      vertex 8 -10 20
    endloop
  endfacet
  facet normal 0 1 -0
    outer loop
      vertex 15 10 0
      vertex -15 10 5
      vertex 15 10 5
    endloop
  endfacet
  facet normal 0 1 0
    outer loop
      vertex -15 10 5
      vertex 15 10 0
      vertex -15 10 0
    endloop
  endfacet
  facet normal 0.233445 0.97237 -0
    outer loop
      vertex 18.0902 9.51056 0
      vertex 16.5643 9.87688 5
      vertex 18.0902 9.51056 5
    endloop
  endfacet
  facet normal 0.233445 0.97237 0
    outer loop
      vertex 16.5643 9.87688 5
      vertex 18.0902 9.51056 0
      vertex 16.5643 9.87688 0
    endloop
  endfacet
  facet normal 0.0784596 0.996917 -0
    outer loop
      vertex 16.5643 9.87688 0
      vertex 15 10 5
      vertex 16.5643 9.87688 5
    endloop
  endfacet
  facet normal 0.0784596 0.996917 0
    outer loop
      vertex 15 10 5
      vertex 16.5643 9.87688 0
      vertex 15 10 0
    endloop
  endfacet
  facet normal -0.649448 0.760406 0
    outer loop
      vertex -20.8779 8.09017 0
      vertex -22.0711 7.07107 5
      vertex -20.8779 8.09017 5
    endloop
  endfacet
  facet normal -0.649448 0.760406 0
    outer loop
      vertex -22.0711 7.07107 5
      vertex -20.8779 8.09017 0
      vertex -22.0711 7.07107 0
    endloop
  endfacet
  facet normal -0.233445 0.97237 0
    outer loop
      vertex -16.5643 9.87688 0
      vertex -18.0902 9.51056 5
      vertex -16.5643 9.87688 5
    endloop
  endfacet
  facet normal -0.233445 0.97237 0
    outer loop
      vertex -18.0902 9.51056 5
      vertex -16.5643 9.87688 0
      vertex -18.0902 9.51056 0
    endloop
  endfacet
  facet normal 0.760406 0.649448 0
    outer loop
      vertex 23.0902 5.87785 5
      vertex 22.0711 7.07107 0
      vertex 22.0711 7.07107 5
    endloop
  endfacet
  facet normal 0.760406 0.649448 0
    outer loop
      vertex 22.0711 7.07107 0
      vertex 23.0902 5.87785 5
      vertex 23.0902 5.87785 0
    endloop
  endfacet
  facet normal -0.85264 0.522498 0
    outer loop
      vertex -23.9101 4.5399 0
      vertex -23.0902 5.87785 5
      vertex -23.0902 5.87785 0
    endloop
  endfacet
  facet normal -0.85264 0.522498 0
    outer loop
      vertex -23.0902 5.87785 5
      vertex -23.9101 4.5399 0
      vertex -23.9101 4.5399 5
    endloop
  endfacet
  facet normal -0.760406 0.649448 0
    outer loop
      vertex -23.0902 5.87785 0
      vertex -22.0711 7.07107 5
      vertex -22.0711 7.07107 0
    endloop
  endfacet
  facet normal -0.760406 0.649448 0
    outer loop
      vertex -22.0711 7.07107 5
      vertex -23.0902 5.87785 0
      vertex -23.0902 5.87785 5
    endloop
  endfacet
  facet normal -0.97237 0.233445 0
    outer loop
      vertex -24.8769 1.56434 0
      vertex -24.5106 3.09017 5
      vertex -24.5106 3.09017 0
    endloop
  endfacet
  facet normal -0.97237 0.233445 0
    outer loop
      vertex -24.5106 3.09017 5
      vertex -24.8769 1.56434 0
      vertex -24.8769 1.56434 5
    endloop
  endfacet
  facet normal 0 0 1
    outer loop
      vertex 17 0 5
      vertex 25 0 5
      vertex 24.8769 1.56434 5
    endloop
  endfacet
  facet normal 0 0 1
    outer loop
      vertex 16.9754 0.312868 5
      vertex 24.8769 1.56434 5
      vertex 24.5106 3.09017 5
    endloop
  endfacet
  facet normal 0 0 1
    outer loop
      vertex 25 0 5
      vertex 17 0 5
      vertex 24.8769 -1.56434 5
    endloop
  endfacet
  facet normal 0 0 1
    outer loop
      vertex 16.9021 0.618033 5
      vertex 24.5106 3.09017 5
      vertex 23.9101 4.5399 5
    endloop
  endfacet
  facet normal -0 0 1
    outer loop
      vertex 16.9754 -0.312868 5
      vertex 24.8769 -1.56434 5
      vertex 17 0 5
    endloop
  endfacet
  facet normal 0 0 1
    outer loop
      vertex 16.782 0.907981 5
      vertex 23.9101 4.5399 5
      vertex 23.0902 5.87785 5
    endloop
  endfacet
  facet normal 0 0 1
    outer loop
      vertex 24.8769 -1.56434 5
      vertex 16.9754 -0.312868 5
      vertex 24.5106 -3.09017 5
    endloop
  endfacet
  facet normal 0 0 1
    outer loop
      vertex 16.618 1.17557 5
      vertex 23.0902 5.87785 5
      vertex 22.0711 7.07107 5
    endloop
  endfacet
  facet normal -0 0 1
    outer loop
      vertex 16.9021 -0.618033 5
      vertex 24.5106 -3.09017 5
      vertex 16.9754 -0.312868 5
    endloop
  endfacet
  facet normal 0 0 1
    outer loop
      vertex 16.4142 1.41421 5
      vertex 22.0711 7.07107 5
      vertex 20.8779 8.09017 5
    endloop
  endfacet
  facet normal 0 0 1
    outer loop
      vertex 24.5106 -3.09017 5
      vertex 16.9021 -0.618033 5
      vertex 23.9101 -4.5399 5
    endloop
  endfacet
  facet normal 0 0 1
    outer loop
      vertex 16.1756 1.61803 5
      vertex 20.8779 8.09017 5
      vertex 19.5399 8.91006 5
    endloop
  endfacet
  facet normal -0 0 1
    outer loop
      vertex 16.782 -0.907981 5
      vertex 23.9101 -4.5399 5
      vertex 16.9021 -0.618033 5
    endloop
  endfacet
  facet normal 0 0 1
    outer loop
      vertex 15.908 1.78201 5
      vertex 19.5399 8.91006 5
      vertex 18.0902 9.51056 5
    endloop
  endfacet
  facet normal 0 0 1
    outer loop
      vertex 23.9101 -4.5399 5
      vertex 16.782 -0.907981 5
      vertex 23.0902 -5.87785 5
    endloop
  endfacet
  facet normal -0 0 1
    outer loop
      vertex 16.618 -1.17557 5
      vertex 23.0902 -5.87785 5
      vertex 16.782 -0.907981 5
    endloop
  endfacet
  facet normal 0 0 1
    outer loop
      vertex 24.8769 1.56434 5
      vertex 16.9754 0.312868 5
      vertex 17 0 5
    endloop
  endfacet
  facet normal 0 0 1
    outer loop
      vertex 24.5106 3.09017 5
      vertex 16.9021 0.618033 5
      vertex 16.9754 0.312868 5
    endloop
  endfacet
  facet normal 0 0 1
    outer loop
      vertex 23.9101 4.5399 5
      vertex 16.782 0.907981 5
      vertex 16.9021 0.618033 5
    endloop
  endfacet
  facet normal 0 0 1
    outer loop
      vertex 23.0902 5.87785 5
      vertex 16.618 1.17557 5
      vertex 16.782 0.907981 5
    endloop
  endfacet
  facet normal 0 0 1
    outer loop
      vertex 15.618 1.90211 5
      vertex 18.0902 9.51056 5
      vertex 16.5643 9.87688 5
    endloop
  endfacet
  facet normal 0 0 1
    outer loop
      vertex 22.0711 7.07107 5
      vertex 16.4142 1.41421 5
      vertex 16.618 1.17557 5
    endloop
  endfacet
  facet normal 0 0 1
    outer loop
      vertex 20.8779 8.09017 5
      vertex 16.1756 1.61803 5
      vertex 16.4142 1.41421 5
    endloop
  endfacet
  facet normal 0 0 1
    outer loop
      vertex 19.5399 8.91006 5
      vertex 15.908 1.78201 5
      vertex 16.1756 1.61803 5
    endloop
  endfacet
  facet normal 0 0 1
    outer loop
      vertex 18.0902 9.51056 5
      vertex 15.618 1.90211 5
      vertex 15.908 1.78201 5
    endloop
  endfacet
  facet normal 0 0 1
    outer loop
      vertex 16.5643 9.87688 5
      vertex 15.3129 1.97538 5
      vertex 15.618 1.90211 5
    endloop
  endfacet
  facet normal 0 0 1
    outer loop
      vertex 15 10 5
      vertex 15.3129 1.97538 5
      vertex 16.5643 9.87688 5
    endloop
  endfacet
  facet normal 0 0 1
    outer loop
      vertex 15 10 5
      vertex 15 2 5
      vertex 15.3129 1.97538 5
    endloop
  endfacet
  facet normal 0 0 1
    outer loop
      vertex 15 10 5
      vertex 14.6871 1.97538 5
      vertex 15 2 5
    endloop
  endfacet
  facet normal 0 0 1
    outer loop
      vertex 15 10 5
      vertex 14.382 1.90211 5
      vertex 14.6871 1.97538 5
    endloop
  endfacet
  facet normal 0 0 1
    outer loop
      vertex 15 10 5
      vertex 14.092 1.78201 5
      vertex 14.382 1.90211 5
    endloop
  endfacet
  facet normal 0 0 1
    outer loop
      vertex 15 10 5
      vertex 13.8244 1.61803 5
      vertex 14.092 1.78201 5
    endloop
  endfacet
  facet normal 0 0 1
    outer loop
      vertex 15 10 5
      vertex 13.5858 1.41421 5
      vertex 13.8244 1.61803 5
    endloop
  endfacet
  facet normal 0 0 1
    outer loop
      vertex 8 0 5
      vertex 13.5858 1.41421 5
      vertex 15 10 5
    endloop
  endfacet
  facet normal 0 0 1
    outer loop
      vertex 13.5858 1.41421 5
      vertex 8 0 5
      vertex 13.382 1.17557 5
    endloop
  endfacet
  facet normal 0 0 1
    outer loop
      vertex 13.382 1.17557 5
      vertex 8 0 5
      vertex 13.218 0.907981 5
    endloop
  endfacet
  facet normal 0 0 1
    outer loop
      vertex 13.218 0.907981 5
      vertex 8 0 5
      vertex 13.0979 0.618033 5
    endloop
  endfacet
  facet normal 0 0 1
    outer loop
      vertex 13.0246 0.312868 5
      vertex 8 0 5
      vertex 13 0 5
    endloop
  endfacet
  facet normal 0 0 1
    outer loop
      vertex 13.0979 0.618033 5
      vertex 8 0 5
      vertex 13.0246 0.312868 5
    endloop
  endfacet
  facet normal 0 0 1
    outer loop
      vertex 15 10 5
      vertex 5 0 5
      vertex 8 0 5
    endloop
  endfacet
  facet normal 0 0 1
    outer loop
      vertex 5 0 5
      vertex -5 0 5
      vertex 5 -10 5
    endloop
  endfacet
  facet normal 0 0 1
    outer loop
      vertex 15 10 5
      vertex -5 0 5
      vertex 5 0 5
    endloop
  endfacet
  facet normal -0 0 1
    outer loop
      vertex -15 10 5
      vertex -5 0 5
      vertex 15 10 5
    endloop
  endfacet
  facet normal 0 0 1
    outer loop
      vertex -13.0246 -0.312868 5
      vertex -8 0 5
      vertex -13 0 5
    endloop
  endfacet
  facet normal 0 0 1
    outer loop
      vertex -5 0 5
      vertex -15 10 5
      vertex -8 0 5
    endloop
  endfacet
  facet normal 0 0 1
    outer loop
      vertex -8 0 5
      vertex -13.0246 0.312868 5
      vertex -13 0 5
    endloop
  endfacet
  facet normal 0 0 1
    outer loop
      vertex -8 0 5
      vertex -13.0979 0.618033 5
      vertex -13.0246 0.312868 5
    endloop
  endfacet
  facet normal 0 0 1
    outer loop
      vertex -8 0 5
      vertex -13.218 0.907981 5
      vertex -13.0979 0.618033 5
    endloop
  endfacet
  facet normal -0 -0 1
    outer loop
      vertex -13.5858 1.41421 5
      vertex -8 0 5
      vertex -15 10 5
    endloop
  endfacet
  facet normal 0 0 1
    outer loop
      vertex -8 0 5
      vertex -13.382 1.17557 5
      vertex -13.218 0.907981 5
    endloop
  endfacet
  facet normal 0 0 1
    outer loop
      vertex -8 0 5
      vertex -13.5858 1.41421 5
      vertex -13.382 1.17557 5
    endloop
  endfacet
  facet normal 0 0 1
    outer loop
      vertex -13.5858 1.41421 5
      vertex -15 10 5
      vertex -13.8244 1.61803 5
    endloop
  endfacet
  facet normal 0 0 1
    outer loop
      vertex -13.8244 1.61803 5
      vertex -15 10 5
      vertex -14.092 1.78201 5
    endloop
  endfacet
  facet normal 0 0 1
    outer loop
      vertex -14.092 1.78201 5
      vertex -15 10 5
      vertex -14.382 1.90211 5
    endloop
  endfacet
  facet normal 0 0 1
    outer loop
      vertex -14.382 1.90211 5
      vertex -15 10 5
      vertex -14.6871 1.97538 5
    endloop
  endfacet
  facet normal 0 0 1
    outer loop
      vertex -15 10 5
      vertex -15 2 5
      vertex -14.6871 1.97538 5
    endloop
  endfacet
  facet normal 0 0 1
    outer loop
      vertex -15 10 5
      vertex -15.3129 1.97538 5
      vertex -15 2 5
    endloop
  endfacet
  facet normal -0 0 1
    outer loop
      vertex -16.5643 9.87688 5
      vertex -15.3129 1.97538 5
      vertex -15 10 5
    endloop
  endfacet
  facet normal 0 0 1
    outer loop
      vertex -15.3129 1.97538 5
      vertex -16.5643 9.87688 5
      vertex -15.618 1.90211 5
    endloop
  endfacet
  facet normal -0 0 1
    outer loop
      vertex -18.0902 9.51056 5
      vertex -15.618 1.90211 5
      vertex -16.5643 9.87688 5
    endloop
  endfacet
  facet normal 0 0 1
    outer loop
      vertex -15.618 1.90211 5
      vertex -18.0902 9.51056 5
      vertex -15.908 1.78201 5
    endloop
  endfacet
  facet normal -0 0 1
    outer loop
      vertex -19.5399 8.91006 5
      vertex -15.908 1.78201 5
      vertex -18.0902 9.51056 5
    endloop
  endfacet
  facet normal 0 0 1
    outer loop
      vertex -15.908 1.78201 5
      vertex -19.5399 8.91006 5
      vertex -16.1756 1.61803 5
    endloop
  endfacet
  facet normal -0 0 1
    outer loop
      vertex -20.8779 8.09017 5
      vertex -16.1756 1.61803 5
      vertex -19.5399 8.91006 5
    endloop
  endfacet
  facet normal 0 0 1
    outer loop
      vertex -16.1756 1.61803 5
      vertex -20.8779 8.09017 5
      vertex -16.4142 1.41421 5
    endloop
  endfacet
  facet normal -0 0 1
    outer loop
      vertex -22.0711 7.07107 5
      vertex -16.4142 1.41421 5
      vertex -20.8779 8.09017 5
    endloop
  endfacet
  facet normal 0 0 1
    outer loop
      vertex -16.4142 1.41421 5
      vertex -22.0711 7.07107 5
      vertex -16.618 1.17557 5
    endloop
  endfacet
  facet normal -0 0 1
    outer loop
      vertex -23.0902 5.87785 5
      vertex -16.618 1.17557 5
      vertex -22.0711 7.07107 5
    endloop
  endfacet
  facet normal 0 0 1
    outer loop
      vertex 23.0902 -5.87785 5
      vertex 16.618 -1.17557 5
      vertex 22.0711 -7.07107 5
    endloop
  endfacet
  facet normal -0 0 1
    outer loop
      vertex 16.4142 -1.41421 5
      vertex 22.0711 -7.07107 5
      vertex 16.618 -1.17557 5
    endloop
  endfacet
  facet normal 0 0 1
    outer loop
      vertex 22.0711 -7.07107 5
      vertex 16.4142 -1.41421 5
      vertex 20.8779 -8.09017 5
    endloop
  endfacet
  facet normal -0 0 1
    outer loop
      vertex 16.1756 -1.61803 5
      vertex 20.8779 -8.09017 5
      vertex 16.4142 -1.41421 5
    endloop
  endfacet
  facet normal 0 0 1
    outer loop
      vertex 20.8779 -8.09017 5
      vertex 16.1756 -1.61803 5
      vertex 19.5399 -8.91006 5
    endloop
  endfacet
  facet normal -0 0 1
    outer loop
      vertex 15.908 -1.78201 5
      vertex 19.5399 -8.91006 5
      vertex 16.1756 -1.61803 5
    endloop
  endfacet
  facet normal 0 0 1
    outer loop
      vertex 19.5399 -8.91006 5
      vertex 15.908 -1.78201 5
      vertex 18.0902 -9.51056 5
    endloop
  endfacet
  facet normal -0 0 1
    outer loop
      vertex 15.618 -1.90211 5
      vertex 18.0902 -9.51056 5
      vertex 15.908 -1.78201 5
    endloop
  endfacet
  facet normal 0 0 1
    outer loop
      vertex 18.0902 -9.51056 5
      vertex 15.618 -1.90211 5
      vertex 16.5643 -9.87688 5
    endloop
  endfacet
  facet normal -0 0 1
    outer loop
      vertex 15.3129 -1.97538 5
      vertex 16.5643 -9.87688 5
      vertex 15.618 -1.90211 5
    endloop
  endfacet
  facet normal -0 0 1
    outer loop
      vertex 15 -2 5
      vertex 16.5643 -9.87688 5
      vertex 15.3129 -1.97538 5
    endloop
  endfacet
  facet normal 0 0 1
    outer loop
      vertex 15 -2 5
      vertex 15 -10 5
      vertex 16.5643 -9.87688 5
    endloop
  endfacet
  facet normal 0 0 1
    outer loop
      vertex 14.6871 -1.97538 5
      vertex 15 -10 5
      vertex 15 -2 5
    endloop
  endfacet
  facet normal 0 0 1
    outer loop
      vertex 14.382 -1.90211 5
      vertex 15 -10 5
      vertex 14.6871 -1.97538 5
    endloop
  endfacet
  facet normal 0 0 1
    outer loop
      vertex 14.092 -1.78201 5
      vertex 15 -10 5
      vertex 14.382 -1.90211 5
    endloop
  endfacet
  facet normal 0 0 1
    outer loop
      vertex 8 -10 5
      vertex 14.092 -1.78201 5
      vertex 13.8244 -1.61803 5
    endloop
  endfacet
  facet normal 0 0 1
    outer loop
      vertex 8 -10 5
      vertex 13.8244 -1.61803 5
      vertex 13.5858 -1.41421 5
    endloop
  endfacet
  facet normal 0 0 1
    outer loop
      vertex 8 0 5
      vertex 13.5858 -1.41421 5
      vertex 13.382 -1.17557 5
    endloop
  endfacet
  facet normal 0 0 1
    outer loop
      vertex 8 0 5
      vertex 13.382 -1.17557 5
      vertex 13.218 -0.907981 5
    endloop
  endfacet
  facet normal 0 0 1
    outer loop
      vertex 8 0 5
      vertex 13.218 -0.907981 5
      vertex 13.0979 -0.618033 5
    endloop
  endfacet
  facet normal 0 0 1
    outer loop
      vertex 8 0 5
      vertex 13.0979 -0.618033 5
      vertex 13.0246 -0.312868 5
    endloop
  endfacet
  facet normal -0 0 1
    outer loop
      vertex 8 0 5
      vertex 13.0246 -0.312868 5
      vertex 13 0 5
    endloop
  endfacet
  facet normal 0 0 1
    outer loop
      vertex 13.5858 -1.41421 5
      vertex 8 0 5
      vertex 8 -10 5
    endloop
  endfacet
  facet normal 0 0 1
    outer loop
      vertex 14.092 -1.78201 5
      vertex 8 -10 5
      vertex 15 -10 5
    endloop
  endfacet
  facet normal 0 0 1
    outer loop
      vertex 5 -10 5
      vertex -5 0 5
      vertex -5 -10 5
    endloop
  endfacet
  facet normal 0 0 1
    outer loop
      vertex -13.0979 -0.618033 5
      vertex -8 0 5
      vertex -13.0246 -0.312868 5
    endloop
  endfacet
  facet normal 0 0 1
    outer loop
      vertex -13.218 -0.907981 5
      vertex -8 0 5
      vertex -13.0979 -0.618033 5
    endloop
  endfacet
  facet normal 0 0 1
    outer loop
      vertex -13.382 -1.17557 5
      vertex -8 0 5
      vertex -13.218 -0.907981 5
    endloop
  endfacet
  facet normal 0 0 1
    outer loop
      vertex -13.5858 -1.41421 5
      vertex -8 0 5
      vertex -13.382 -1.17557 5
    endloop
  endfacet
  facet normal 0 0 1
    outer loop
      vertex -8 0 5
      vertex -13.5858 -1.41421 5
      vertex -8 -10 5
    endloop
  endfacet
  facet normal -0 0 1
    outer loop
      vertex -13.8244 -1.61803 5
      vertex -8 -10 5
      vertex -13.5858 -1.41421 5
    endloop
  endfacet
  facet normal -0 0 1
    outer loop
      vertex -14.092 -1.78201 5
      vertex -8 -10 5
      vertex -13.8244 -1.61803 5
    endloop
  endfacet
  facet normal 0 0 1
    outer loop
      vertex -15 -10 5
      vertex -14.092 -1.78201 5
      vertex -14.382 -1.90211 5
    endloop
  endfacet
  facet normal 0 0 1
    outer loop
      vertex -15 -10 5
      vertex -14.382 -1.90211 5
      vertex -14.6871 -1.97538 5
    endloop
  endfacet
  facet normal 0 0 1
    outer loop
      vertex -15 -10 5
      vertex -14.6871 -1.97538 5
      vertex -15 -2 5
    endloop
  endfacet
  facet normal 0 0 1
    outer loop
      vertex -14.092 -1.78201 5
      vertex -15 -10 5
      vertex -8 -10 5
    endloop
  endfacet
  facet normal 0 0 1
    outer loop
      vertex -15.3129 -1.97538 5
      vertex -15 -10 5
      vertex -15 -2 5
    endloop
  endfacet
  facet normal 0 0 1
    outer loop
      vertex -16.5643 -9.87688 5
      vertex -15.3129 -1.97538 5
      vertex -15.618 -1.90211 5
    endloop
  endfacet
  facet normal 0 0 1
    outer loop
      vertex -18.0902 -9.51056 5
      vertex -15.618 -1.90211 5
      vertex -15.908 -1.78201 5
    endloop
  endfacet
  facet normal 0 0 1
    outer loop
      vertex -19.5399 -8.91006 5
      vertex -15.908 -1.78201 5
      vertex -16.1756 -1.61803 5
    endloop
  endfacet
  facet normal 0 0 1
    outer loop
      vertex -20.8779 -8.09017 5
      vertex -16.1756 -1.61803 5
      vertex -16.4142 -1.41421 5
    endloop
  endfacet
  facet normal 0 0 1
    outer loop
      vertex -15.3129 -1.97538 5
      vertex -16.5643 -9.87688 5
      vertex -15 -10 5
    endloop
  endfacet
  facet normal 0 0 1
    outer loop
      vertex -22.0711 -7.07107 5
      vertex -16.4142 -1.41421 5
      vertex -16.618 -1.17557 5
    endloop
  endfacet
  facet normal 0 0 1
    outer loop
      vertex -23.0902 -5.87785 5
      vertex -16.618 -1.17557 5
      vertex -16.782 -0.907981 5
    endloop
  endfacet
  facet normal 0 0 1
    outer loop
      vertex -23.9101 -4.5399 5
      vertex -16.782 -0.907981 5
      vertex -16.9021 -0.618033 5
    endloop
  endfacet
  facet normal 0 0 1
    outer loop
      vertex -24.5106 -3.09017 5
      vertex -16.9021 -0.618033 5
      vertex -16.9754 -0.312868 5
    endloop
  endfacet
  facet normal 0 0 1
    outer loop
      vertex -24.8769 -1.56434 5
      vertex -16.9754 -0.312868 5
      vertex -17 0 5
    endloop
  endfacet
  facet normal 0 0 1
    outer loop
      vertex -16.618 1.17557 5
      vertex -23.0902 5.87785 5
      vertex -16.782 0.907981 5
    endloop
  endfacet
  facet normal 0 0 1
    outer loop
      vertex -15.618 -1.90211 5
      vertex -18.0902 -9.51056 5
      vertex -16.5643 -9.87688 5
    endloop
  endfacet
  facet normal -0 0 1
    outer loop
      vertex -23.9101 4.5399 5
      vertex -16.782 0.907981 5
      vertex -23.0902 5.87785 5
    endloop
  endfacet
  facet normal 0 0 1
    outer loop
      vertex -15.908 -1.78201 5
      vertex -19.5399 -8.91006 5
      vertex -18.0902 -9.51056 5
    endloop
  endfacet
  facet normal 0 0 1
    outer loop
      vertex -16.782 0.907981 5
      vertex -23.9101 4.5399 5
      vertex -16.9021 0.618033 5
    endloop
  endfacet
  facet normal 0 0 1
    outer loop
      vertex -16.1756 -1.61803 5
      vertex -20.8779 -8.09017 5
      vertex -19.5399 -8.91006 5
    endloop
  endfacet
  facet normal -0 0 1
    outer loop
      vertex -24.5106 3.09017 5
      vertex -16.9021 0.618033 5
      vertex -23.9101 4.5399 5
    endloop
  endfacet
  facet normal 0 0 1
    outer loop
      vertex -16.4142 -1.41421 5
      vertex -22.0711 -7.07107 5
      vertex -20.8779 -8.09017 5
    endloop
  endfacet
  facet normal 0 0 1
    outer loop
      vertex -16.9021 0.618033 5
      vertex -24.5106 3.09017 5
      vertex -16.9754 0.312868 5
    endloop
  endfacet
  facet normal 0 0 1
    outer loop
      vertex -16.618 -1.17557 5
      vertex -23.0902 -5.87785 5
      vertex -22.0711 -7.07107 5
    endloop
  endfacet
  facet normal -0 0 1
    outer loop
      vertex -24.8769 1.56434 5
      vertex -16.9754 0.312868 5
      vertex -24.5106 3.09017 5
    endloop
  endfacet
  facet normal 0 0 1
    outer loop
      vertex -16.782 -0.907981 5
      vertex -23.9101 -4.5399 5
      vertex -23.0902 -5.87785 5
    endloop
  endfacet
  facet normal 0 0 1
    outer loop
      vertex -16.9754 0.312868 5
      vertex -24.8769 1.56434 5
      vertex -17 0 5
    endloop
  endfacet
  facet normal 0 0 1
    outer loop
      vertex -16.9021 -0.618033 5
      vertex -24.5106 -3.09017 5
      vertex -23.9101 -4.5399 5
    endloop
  endfacet
  facet normal 0 0 1
    outer loop
      vertex -25 0 5
      vertex -17 0 5
      vertex -24.8769 1.56434 5
    endloop
  endfacet
  facet normal 0 0 1
    outer loop
      vertex -16.9754 -0.312868 5
      vertex -24.8769 -1.56434 5
      vertex -24.5106 -3.09017 5
    endloop
  endfacet
  facet normal 0 0 1
    outer loop
      vertex -17 0 5
      vertex -25 0 5
      vertex -24.8769 -1.56434 5
    endloop
  endfacet
  facet normal -0.522498 0.85264 0
    outer loop
      vertex -19.5399 8.91006 0
      vertex -20.8779 8.09017 5
      vertex -19.5399 8.91006 5
    endloop
  endfacet
  facet normal -0.522498 0.85264 0
    outer loop
      vertex -20.8779 8.09017 5
      vertex -19.5399 8.91006 0
      vertex -20.8779 8.09017 0
    endloop
  endfacet
  facet normal -0.0784596 0.996917 0
    outer loop
      vertex -15 10 0
      vertex -16.5643 9.87688 5
      vertex -15 10 5
    endloop
  endfacet
  facet normal -0.0784596 0.996917 0
    outer loop
      vertex -16.5643 9.87688 5
      vertex -15 10 0
      vertex -16.5643 9.87688 0
    endloop
  endfacet
  facet normal 0.760406 -0.649448 0
    outer loop
      vertex 22.0711 -7.07107 5
      vertex 23.0902 -5.87785 0
      vertex 23.0902 -5.87785 5
    endloop
  endfacet
  facet normal 0.760406 -0.649448 0
    outer loop
      vertex 23.0902 -5.87785 0
      vertex 22.0711 -7.07107 5
      vertex 22.0711 -7.07107 0
    endloop
  endfacet
  facet normal 0.996917 -0.0784596 0
    outer loop
      vertex 24.8769 -1.56434 5
      vertex 25 0 0
      vertex 25 0 5
    endloop
  endfacet
  facet normal 0.996917 -0.0784596 0
    outer loop
      vertex 25 0 0
      vertex 24.8769 -1.56434 5
      vertex 24.8769 -1.56434 0
    endloop
  endfacet
  facet normal -0.233445 -0.97237 0
    outer loop
      vertex -18.0902 -9.51056 0
      vertex -16.5643 -9.87688 5
      vertex -18.0902 -9.51056 5
    endloop
  endfacet
  facet normal -0.233445 -0.97237 -0
    outer loop
      vertex -16.5643 -9.87688 5
      vertex -18.0902 -9.51056 0
      vertex -16.5643 -9.87688 0
    endloop
  endfacet
  facet normal 0.923879 0.382684 0
    outer loop
      vertex 24.5106 3.09017 5
      vertex 23.9101 4.5399 0
      vertex 23.9101 4.5399 5
    endloop
  endfacet
  facet normal 0.923879 0.382684 0
    outer loop
      vertex 23.9101 4.5399 0
      vertex 24.5106 3.09017 5
      vertex 24.5106 3.09017 0
    endloop
  endfacet
  facet normal 0.97237 0.233445 0
    outer loop
      vertex 24.8769 1.56434 5
      vertex 24.5106 3.09017 0
      vertex 24.5106 3.09017 5
    endloop
  endfacet
  facet normal 0.97237 0.233445 0
    outer loop
      vertex 24.5106 3.09017 0
      vertex 24.8769 1.56434 5
      vertex 24.8769 1.56434 0
    endloop
  endfacet
  facet normal 0.85264 0.522498 0
    outer loop
      vertex 23.9101 4.5399 5
      vertex 23.0902 5.87785 0
      vertex 23.0902 5.87785 5
    endloop
  endfacet
  facet normal 0.85264 0.522498 0
    outer loop
      vertex 23.0902 5.87785 0
      vertex 23.9101 4.5399 5
      vertex 23.9101 4.5399 0
    endloop
  endfacet
  facet normal 0.522498 0.85264 -0
    outer loop
      vertex 20.8779 8.09017 0
      vertex 19.5399 8.91006 5
      vertex 20.8779 8.09017 5
    endloop
  endfacet
  facet normal 0.522498 0.85264 0
    outer loop
      vertex 19.5399 8.91006 5
      vertex 20.8779 8.09017 0
      vertex 19.5399 8.91006 0
    endloop
  endfacet
  facet normal 0.382683 0.92388 -0
    outer loop
      vertex 19.5399 8.91006 0
      vertex 18.0902 9.51056 5
      vertex 19.5399 8.91006 5
    endloop
  endfacet
  facet normal 0.382683 0.92388 0
    outer loop
      vertex 18.0902 9.51056 5
      vertex 19.5399 8.91006 0
      vertex 18.0902 9.51056 0
    endloop
  endfacet
  facet normal 0.649448 0.760406 -0
    outer loop
      vertex 22.0711 7.07107 0
      vertex 20.8779 8.09017 5
      vertex 22.0711 7.07107 5
    endloop
  endfacet
  facet normal 0.649448 0.760406 0
    outer loop
      vertex 20.8779 8.09017 5
      vertex 22.0711 7.07107 0
      vertex 20.8779 8.09017 0
    endloop
  endfacet
  facet normal -0.923879 0.382684 0
    outer loop
      vertex -24.5106 3.09017 0
      vertex -23.9101 4.5399 5
      vertex -23.9101 4.5399 0
    endloop
  endfacet
  facet normal -0.923879 0.382684 0
    outer loop
      vertex -23.9101 4.5399 5
      vertex -24.5106 3.09017 0
      vertex -24.5106 3.09017 5
    endloop
  endfacet
  facet normal -0.382683 0.92388 0
    outer loop
      vertex -18.0902 9.51056 0
      vertex -19.5399 8.91006 5
      vertex -18.0902 9.51056 5
    endloop
  endfacet
  facet normal -0.382683 0.92388 0
    outer loop
      vertex -19.5399 8.91006 5
      vertex -18.0902 9.51056 0
      vertex -19.5399 8.91006 0
    endloop
  endfacet
  facet normal 0.522498 -0.85264 0
    outer loop
      vertex 19.5399 -8.91006 0
      vertex 20.8779 -8.09017 5
      vertex 19.5399 -8.91006 5
    endloop
  endfacet
  facet normal 0.522498 -0.85264 0
    outer loop
      vertex 20.8779 -8.09017 5
      vertex 19.5399 -8.91006 0
      vertex 20.8779 -8.09017 0
    endloop
  endfacet
  facet normal 0.97237 -0.233445 0
    outer loop
      vertex 24.5106 -3.09017 5
      vertex 24.8769 -1.56434 0
      vertex 24.8769 -1.56434 5
    endloop
  endfacet
  facet normal 0.97237 -0.233445 0
    outer loop
      vertex 24.8769 -1.56434 0
      vertex 24.5106 -3.09017 5
      vertex 24.5106 -3.09017 0
    endloop
  endfacet
  facet normal 0.0784596 -0.996917 0
    outer loop
      vertex 15 -10 0
      vertex 16.5643 -9.87688 5
      vertex 15 -10 5
    endloop
  endfacet
  facet normal 0.0784596 -0.996917 0
    outer loop
      vertex 16.5643 -9.87688 5
      vertex 15 -10 0
      vertex 16.5643 -9.87688 0
    endloop
  endfacet
  facet normal 0.649448 -0.760406 0
    outer loop
      vertex 20.8779 -8.09017 0
      vertex 22.0711 -7.07107 5
      vertex 20.8779 -8.09017 5
    endloop
  endfacet
  facet normal 0.649448 -0.760406 0
    outer loop
      vertex 22.0711 -7.07107 5
      vertex 20.8779 -8.09017 0
      vertex 22.0711 -7.07107 0
    endloop
  endfacet
  facet normal -0.996917 -0.0784596 0
    outer loop
      vertex -24.8769 -1.56434 0
      vertex -25 0 5
      vertex -25 0 0
    endloop
  endfacet
  facet normal -0.996917 -0.0784596 0
    outer loop
      vertex -25 0 5
      vertex -24.8769 -1.56434 0
      vertex -24.8769 -1.56434 5
    endloop
  endfacet
  facet normal -0.649448 -0.760406 0
    outer loop
      vertex -22.0711 -7.07107 0
      vertex -20.8779 -8.09017 5
      vertex -22.0711 -7.07107 5
    endloop
  endfacet
  facet normal -0.649448 -0.760406 -0
    outer loop
      vertex -20.8779 -8.09017 5
      vertex -22.0711 -7.07107 0
      vertex -20.8779 -8.09017 0
    endloop
  endfacet
  facet normal -0.382683 -0.92388 0
    outer loop
      vertex -19.5399 -8.91006 0
      vertex -18.0902 -9.51056 5
      vertex -19.5399 -8.91006 5
    endloop
  endfacet
  facet normal -0.382683 -0.92388 -0
    outer loop
      vertex -18.0902 -9.51056 5
      vertex -19.5399 -8.91006 0
      vertex -18.0902 -9.51056 0
    endloop
  endfacet
  facet normal -0.760406 -0.649448 0
    outer loop
      vertex -22.0711 -7.07107 0
      vertex -23.0902 -5.87785 5
      vertex -23.0902 -5.87785 0
    endloop
  endfacet
  facet normal -0.760406 -0.649448 0
    outer loop
      vertex -23.0902 -5.87785 5
      vertex -22.0711 -7.07107 0
      vertex -22.0711 -7.07107 5
    endloop
  endfacet
  facet normal 0.923879 -0.382684 0
    outer loop
      vertex 23.9101 -4.5399 5
      vertex 24.5106 -3.09017 0
      vertex 24.5106 -3.09017 5
    endloop
  endfacet
  facet normal 0.923879 -0.382684 0
    outer loop
      vertex 24.5106 -3.09017 0
      vertex 23.9101 -4.5399 5
      vertex 23.9101 -4.5399 0
    endloop
  endfacet
  facet normal 0.85264 -0.522498 0
    outer loop
      vertex 23.0902 -5.87785 5
      vertex 23.9101 -4.5399 0
      vertex 23.9101 -4.5399 5
    endloop
  endfacet
  facet normal 0.85264 -0.522498 0
    outer loop
      vertex 23.9101 -4.5399 0
      vertex 23.0902 -5.87785 5
      vertex 23.0902 -5.87785 0
    endloop
  endfacet
  facet normal 0.233445 -0.97237 0
    outer loop
      vertex 16.5643 -9.87688 0
      vertex 18.0902 -9.51056 5
      vertex 16.5643 -9.87688 5
    endloop
  endfacet
  facet normal 0.233445 -0.97237 0
    outer loop
      vertex 18.0902 -9.51056 5
      vertex 16.5643 -9.87688 0
      vertex 18.0902 -9.51056 0
    endloop
  endfacet
  facet normal 0.382683 -0.92388 0
    outer loop
      vertex 18.0902 -9.51056 0
      vertex 19.5399 -8.91006 5
      vertex 18.0902 -9.51056 5
    endloop
  endfacet
  facet normal 0.382683 -0.92388 0
    outer loop
      vertex 19.5399 -8.91006 5
      vertex 18.0902 -9.51056 0
      vertex 19.5399 -8.91006 0
    endloop
  endfacet
  facet normal -0.0784596 -0.996917 0
    outer loop
      vertex -16.5643 -9.87688 0
      vertex -15 -10 5
      vertex -16.5643 -9.87688 5
    endloop
  endfacet
  facet normal -0.0784596 -0.996917 -0
    outer loop
      vertex -15 -10 5
      vertex -16.5643 -9.87688 0
      vertex -15 -10 0
    endloop
  endfacet
  facet normal -0.522498 -0.85264 0
    outer loop
      vertex -20.8779 -8.09017 0
      vertex -19.5399 -8.91006 5
      vertex -20.8779 -8.09017 5
    endloop
  endfacet
  facet normal -0.522498 -0.85264 -0
    outer loop
      vertex -19.5399 -8.91006 5
      vertex -20.8779 -8.09017 0
      vertex -19.5399 -8.91006 0
    endloop
  endfacet
  facet normal -0.923879 -0.382684 0
    outer loop
      vertex -23.9101 -4.5399 0
      vertex -24.5106 -3.09017 5
      vertex -24.5106 -3.09017 0
    endloop
  endfacet
  facet normal -0.923879 -0.382684 0
    outer loop
      vertex -24.5106 -3.09017 5
      vertex -23.9101 -4.5399 0
      vertex -23.9101 -4.5399 5
    endloop
  endfacet
  facet normal -0.85264 -0.522498 0
    outer loop
      vertex -23.0902 -5.87785 0
      vertex -23.9101 -4.5399 5
      vertex -23.9101 -4.5399 0
    endloop
  endfacet
  facet normal -0.85264 -0.522498 0
    outer loop
      vertex -23.9101 -4.5399 5
      vertex -23.0902 -5.87785 0
      vertex -23.0902 -5.87785 5
    endloop
  endfacet
  facet normal 0 0 -1
    outer loop
      vertex 17 0 0
      vertex 25 0 0
      vertex 24.8769 -1.56434 0
    endloop
  endfacet
  facet normal 0 0 -1
    outer loop
      vertex 16.9754 -0.312868 0
      vertex 24.8769 -1.56434 0
      vertex 24.5106 -3.09017 0
    endloop
  endfacet
  facet normal 0 0 -1
    outer loop
      vertex 25 0 0
      vertex 17 0 0
      vertex 24.8769 1.56434 0
    endloop
  endfacet
  facet normal 0 0 -1
    outer loop
      vertex 16.9021 -0.618033 0
      vertex 24.5106 -3.09017 0
      vertex 23.9101 -4.5399 0
    endloop
  endfacet
  facet normal 0 0 -1
    outer loop
      vertex 16.9754 0.312868 0
      vertex 24.8769 1.56434 0
      vertex 17 0 0
    endloop
  endfacet
  facet normal 0 0 -1
    outer loop
      vertex 16.782 -0.907981 0
      vertex 23.9101 -4.5399 0
      vertex 23.0902 -5.87785 0
    endloop
  endfacet
  facet normal -0 0 -1
    outer loop
      vertex 24.8769 1.56434 0
      vertex 16.9754 0.312868 0
      vertex 24.5106 3.09017 0
    endloop
  endfacet
  facet normal 0 0 -1
    outer loop
      vertex 16.618 -1.17557 0
      vertex 23.0902 -5.87785 0
      vertex 22.0711 -7.07107 0
    endloop
  endfacet
  facet normal 0 0 -1
    outer loop
      vertex 16.9021 0.618033 0
      vertex 24.5106 3.09017 0
      vertex 16.9754 0.312868 0
    endloop
  endfacet
  facet normal 0 0 -1
    outer loop
      vertex 16.4142 -1.41421 0
      vertex 22.0711 -7.07107 0
      vertex 20.8779 -8.09017 0
    endloop
  endfacet
  facet normal -0 0 -1
    outer loop
      vertex 24.5106 3.09017 0
      vertex 16.9021 0.618033 0
      vertex 23.9101 4.5399 0
    endloop
  endfacet
  facet normal 0 0 -1
    outer loop
      vertex 16.1756 -1.61803 0
      vertex 20.8779 -8.09017 0
      vertex 19.5399 -8.91006 0
    endloop
  endfacet
  facet normal 0 0 -1
    outer loop
      vertex 16.782 0.907981 0
      vertex 23.9101 4.5399 0
      vertex 16.9021 0.618033 0
    endloop
  endfacet
  facet normal 0 0 -1
    outer loop
      vertex 15.908 -1.78201 0
      vertex 19.5399 -8.91006 0
      vertex 18.0902 -9.51056 0
    endloop
  endfacet
  facet normal -0 0 -1
    outer loop
      vertex 23.9101 4.5399 0
      vertex 16.782 0.907981 0
      vertex 23.0902 5.87785 0
    endloop
  endfacet
  facet normal 0 0 -1
    outer loop
      vertex 16.618 1.17557 0
      vertex 23.0902 5.87785 0
      vertex 16.782 0.907981 0
    endloop
  endfacet
  facet normal 0 0 -1
    outer loop
      vertex 24.8769 -1.56434 0
      vertex 16.9754 -0.312868 0
      vertex 17 0 0
    endloop
  endfacet
  facet normal 0 0 -1
    outer loop
      vertex 24.5106 -3.09017 0
      vertex 16.9021 -0.618033 0
      vertex 16.9754 -0.312868 0
    endloop
  endfacet
  facet normal 0 0 -1
    outer loop
      vertex 23.9101 -4.5399 0
      vertex 16.782 -0.907981 0
      vertex 16.9021 -0.618033 0
    endloop
  endfacet
  facet normal 0 0 -1
    outer loop
      vertex 23.0902 -5.87785 0
      vertex 16.618 -1.17557 0
      vertex 16.782 -0.907981 0
    endloop
  endfacet
  facet normal 0 0 -1
    outer loop
      vertex 15.618 -1.90211 0
      vertex 18.0902 -9.51056 0
      vertex 16.5643 -9.87688 0
    endloop
  endfacet
  facet normal 0 0 -1
    outer loop
      vertex 22.0711 -7.07107 0
      vertex 16.4142 -1.41421 0
      vertex 16.618 -1.17557 0
    endloop
  endfacet
  facet normal 0 0 -1
    outer loop
      vertex 20.8779 -8.09017 0
      vertex 16.1756 -1.61803 0
      vertex 16.4142 -1.41421 0
    endloop
  endfacet
  facet normal 0 0 -1
    outer loop
      vertex 19.5399 -8.91006 0
      vertex 15.908 -1.78201 0
      vertex 16.1756 -1.61803 0
    endloop
  endfacet
  facet normal 0 0 -1
    outer loop
      vertex 18.0902 -9.51056 0
      vertex 15.618 -1.90211 0
      vertex 15.908 -1.78201 0
    endloop
  endfacet
  facet normal 0 0 -1
    outer loop
      vertex 16.5643 -9.87688 0
      vertex 15.3129 -1.97538 0
      vertex 15.618 -1.90211 0
    endloop
  endfacet
  facet normal 0 0 -1
    outer loop
      vertex 16.5643 -9.87688 0
      vertex 15 -2 0
      vertex 15.3129 -1.97538 0
    endloop
  endfacet
  facet normal 0 0 -1
    outer loop
      vertex 15 -10 0
      vertex 15 -2 0
      vertex 16.5643 -9.87688 0
    endloop
  endfacet
  facet normal 0 0 -1
    outer loop
      vertex 15 -10 0
      vertex 14.6871 -1.97538 0
      vertex 15 -2 0
    endloop
  endfacet
  facet normal 0 0 -1
    outer loop
      vertex 15 -10 0
      vertex 14.382 -1.90211 0
      vertex 14.6871 -1.97538 0
    endloop
  endfacet
  facet normal 0 0 -1
    outer loop
      vertex 15 -10 0
      vertex 14.092 -1.78201 0
      vertex 14.382 -1.90211 0
    endloop
  endfacet
  facet normal 0 0 -1
    outer loop
      vertex 15 -10 0
      vertex 13.8244 -1.61803 0
      vertex 14.092 -1.78201 0
    endloop
  endfacet
  facet normal 0 0 -1
    outer loop
      vertex 15 -10 0
      vertex 13.5858 -1.41421 0
      vertex 13.8244 -1.61803 0
    endloop
  endfacet
  facet normal 0 0 -1
    outer loop
      vertex 15 -10 0
      vertex 13.382 -1.17557 0
      vertex 13.5858 -1.41421 0
    endloop
  endfacet
  facet normal 0 0 -1
    outer loop
      vertex 15 -10 0
      vertex 13.218 -0.907981 0
      vertex 13.382 -1.17557 0
    endloop
  endfacet
  facet normal 0 0 -1
    outer loop
      vertex -13.218 -0.907981 0
      vertex 13.218 -0.907981 0
      vertex 15 -10 0
    endloop
  endfacet
  facet normal 0 0 -1
    outer loop
      vertex 13.218 -0.907981 0
      vertex -13.218 -0.907981 0
      vertex 13.0979 -0.618033 0
    endloop
  endfacet
  facet normal 0 0 -1
    outer loop
      vertex 13.0246 -0.312868 0
      vertex -13 0 0
      vertex 13 0 0
    endloop
  endfacet
  facet normal 0 -0 -1
    outer loop
      vertex -13.0979 -0.618033 0
      vertex 13.0979 -0.618033 0
      vertex -13.218 -0.907981 0
    endloop
  endfacet
  facet normal 0 0 -1
    outer loop
      vertex 13.0246 -0.312868 0
      vertex -13.0246 -0.312868 0
      vertex -13 0 0
    endloop
  endfacet
  facet normal -0 0 -1
    outer loop
      vertex 13.0246 -0.312868 0
      vertex -13.0979 -0.618033 0
      vertex -13.0246 -0.312868 0
    endloop
  endfacet
  facet normal 0 0 -1
    outer loop
      vertex 13.0979 -0.618033 0
      vertex -13.0979 -0.618033 0
      vertex 13.0246 -0.312868 0
    endloop
  endfacet
  facet normal 0 0 -1
    outer loop
      vertex -15 -10 0
      vertex -13.218 -0.907981 0
      vertex 15 -10 0
    endloop
  endfacet
  facet normal 0 0 -1
    outer loop
      vertex -13.218 -0.907981 0
      vertex -15 -10 0
      vertex -13.382 -1.17557 0
    endloop
  endfacet
  facet normal 0 0 -1
    outer loop
      vertex -13.382 -1.17557 0
      vertex -15 -10 0
      vertex -13.5858 -1.41421 0
    endloop
  endfacet
  facet normal 0 0 -1
    outer loop
      vertex -13.5858 -1.41421 0
      vertex -15 -10 0
      vertex -13.8244 -1.61803 0
    endloop
  endfacet
  facet normal 0 0 -1
    outer loop
      vertex -13.8244 -1.61803 0
      vertex -15 -10 0
      vertex -14.092 -1.78201 0
    endloop
  endfacet
  facet normal 0 0 -1
    outer loop
      vertex -14.092 -1.78201 0
      vertex -15 -10 0
      vertex -14.382 -1.90211 0
    endloop
  endfacet
  facet normal 0 0 -1
    outer loop
      vertex -14.382 -1.90211 0
      vertex -15 -10 0
      vertex -14.6871 -1.97538 0
    endloop
  endfacet
  facet normal 0 0 -1
    outer loop
      vertex -15 -10 0
      vertex -15 -2 0
      vertex -14.6871 -1.97538 0
    endloop
  endfacet
  facet normal 0 0 -1
    outer loop
      vertex -15 -10 0
      vertex -15.3129 -1.97538 0
      vertex -15 -2 0
    endloop
  endfacet
  facet normal 0 0 -1
    outer loop
      vertex -16.5643 -9.87688 0
      vertex -15.3129 -1.97538 0
      vertex -15 -10 0
    endloop
  endfacet
  facet normal -0 0 -1
    outer loop
      vertex -15.3129 -1.97538 0
      vertex -16.5643 -9.87688 0
      vertex -15.618 -1.90211 0
    endloop
  endfacet
  facet normal 0 0 -1
    outer loop
      vertex -18.0902 -9.51056 0
      vertex -15.618 -1.90211 0
      vertex -16.5643 -9.87688 0
    endloop
  endfacet
  facet normal -0 0 -1
    outer loop
      vertex -15.618 -1.90211 0
      vertex -18.0902 -9.51056 0
      vertex -15.908 -1.78201 0
    endloop
  endfacet
  facet normal 0 0 -1
    outer loop
      vertex -19.5399 -8.91006 0
      vertex -15.908 -1.78201 0
      vertex -18.0902 -9.51056 0
    endloop
  endfacet
  facet normal -0 0 -1
    outer loop
      vertex -15.908 -1.78201 0
      vertex -19.5399 -8.91006 0
      vertex -16.1756 -1.61803 0
    endloop
  endfacet
  facet normal 0 0 -1
    outer loop
      vertex -20.8779 -8.09017 0
      vertex -16.1756 -1.61803 0
      vertex -19.5399 -8.91006 0
    endloop
  endfacet
  facet normal -0 0 -1
    outer loop
      vertex -16.1756 -1.61803 0
      vertex -20.8779 -8.09017 0
      vertex -16.4142 -1.41421 0
    endloop
  endfacet
  facet normal 0 0 -1
    outer loop
      vertex -22.0711 -7.07107 0
      vertex -16.4142 -1.41421 0
      vertex -20.8779 -8.09017 0
    endloop
  endfacet
  facet normal -0 0 -1
    outer loop
      vertex -16.4142 -1.41421 0
      vertex -22.0711 -7.07107 0
      vertex -16.618 -1.17557 0
    endloop
  endfacet
  facet normal 0 0 -1
    outer loop
      vertex -23.0902 -5.87785 0
      vertex -16.618 -1.17557 0
      vertex -22.0711 -7.07107 0
    endloop
  endfacet
  facet normal -0 0 -1
    outer loop
      vertex 23.0902 5.87785 0
      vertex 16.618 1.17557 0
      vertex 22.0711 7.07107 0
    endloop
  endfacet
  facet normal 0 0 -1
    outer loop
      vertex 16.4142 1.41421 0
      vertex 22.0711 7.07107 0
      vertex 16.618 1.17557 0
    endloop
  endfacet
  facet normal -0 0 -1
    outer loop
      vertex 22.0711 7.07107 0
      vertex 16.4142 1.41421 0
      vertex 20.8779 8.09017 0
    endloop
  endfacet
  facet normal 0 0 -1
    outer loop
      vertex 16.1756 1.61803 0
      vertex 20.8779 8.09017 0
      vertex 16.4142 1.41421 0
    endloop
  endfacet
  facet normal -0 0 -1
    outer loop
      vertex 20.8779 8.09017 0
      vertex 16.1756 1.61803 0
      vertex 19.5399 8.91006 0
    endloop
  endfacet
  facet normal 0 0 -1
    outer loop
      vertex 15.908 1.78201 0
      vertex 19.5399 8.91006 0
      vertex 16.1756 1.61803 0
    endloop
  endfacet
  facet normal -0 0 -1
    outer loop
      vertex 19.5399 8.91006 0
      vertex 15.908 1.78201 0
      vertex 18.0902 9.51056 0
    endloop
  endfacet
  facet normal 0 0 -1
    outer loop
      vertex 15.618 1.90211 0
      vertex 18.0902 9.51056 0
      vertex 15.908 1.78201 0
    endloop
  endfacet
  facet normal -0 0 -1
    outer loop
      vertex 18.0902 9.51056 0
      vertex 15.618 1.90211 0
      vertex 16.5643 9.87688 0
    endloop
  endfacet
  facet normal 0 0 -1
    outer loop
      vertex 15.3129 1.97538 0
      vertex 16.5643 9.87688 0
      vertex 15.618 1.90211 0
    endloop
  endfacet
  facet normal 0 0 -1
    outer loop
      vertex 15 2 0
      vertex 16.5643 9.87688 0
      vertex 15.3129 1.97538 0
    endloop
  endfacet
  facet normal 0 0 -1
    outer loop
      vertex 15 2 0
      vertex 15 10 0
      vertex 16.5643 9.87688 0
    endloop
  endfacet
  facet normal 0 0 -1
    outer loop
      vertex 14.6871 1.97538 0
      vertex 15 10 0
      vertex 15 2 0
    endloop
  endfacet
  facet normal 0 0 -1
    outer loop
      vertex 14.382 1.90211 0
      vertex 15 10 0
      vertex 14.6871 1.97538 0
    endloop
  endfacet
  facet normal 0 0 -1
    outer loop
      vertex 14.092 1.78201 0
      vertex 15 10 0
      vertex 14.382 1.90211 0
    endloop
  endfacet
  facet normal 0 0 -1
    outer loop
      vertex 13.8244 1.61803 0
      vertex 15 10 0
      vertex 14.092 1.78201 0
    endloop
  endfacet
  facet normal 0 0 -1
    outer loop
      vertex 13.5858 1.41421 0
      vertex 15 10 0
      vertex 13.8244 1.61803 0
    endloop
  endfacet
  facet normal 0 0 -1
    outer loop
      vertex 13.382 1.17557 0
      vertex 15 10 0
      vertex 13.5858 1.41421 0
    endloop
  endfacet
  facet normal 0 0 -1
    outer loop
      vertex 13.218 0.907981 0
      vertex 15 10 0
      vertex 13.382 1.17557 0
    endloop
  endfacet
  facet normal 0 0 -1
    outer loop
      vertex -13.218 0.907981 0
      vertex 13.218 0.907981 0
      vertex 13.0979 0.618033 0
    endloop
  endfacet
  facet normal 0 0 -1
    outer loop
      vertex -13.0979 0.618033 0
      vertex 13.0979 0.618033 0
      vertex 13.0246 0.312868 0
    endloop
  endfacet
  facet normal 0 0 -1
    outer loop
      vertex -13 0 0
      vertex 13.0246 0.312868 0
      vertex 13 0 0
    endloop
  endfacet
  facet normal 0 0 -1
    outer loop
      vertex -13.0246 0.312868 0
      vertex 13.0246 0.312868 0
      vertex -13 0 0
    endloop
  endfacet
  facet normal 0 0 -1
    outer loop
      vertex -13.0979 0.618033 0
      vertex 13.0246 0.312868 0
      vertex -13.0246 0.312868 0
    endloop
  endfacet
  facet normal 0 0 -1
    outer loop
      vertex 13.0979 0.618033 0
      vertex -13.0979 0.618033 0
      vertex -13.218 0.907981 0
    endloop
  endfacet
  facet normal 0 0 -1
    outer loop
      vertex 13.218 0.907981 0
      vertex -13.218 0.907981 0
      vertex 15 10 0
    endloop
  endfacet
  facet normal 0 0 -1
    outer loop
      vertex -15 10 0
      vertex -13.218 0.907981 0
      vertex -13.382 1.17557 0
    endloop
  endfacet
  facet normal 0 0 -1
    outer loop
      vertex -15 10 0
      vertex -13.382 1.17557 0
      vertex -13.5858 1.41421 0
    endloop
  endfacet
  facet normal 0 0 -1
    outer loop
      vertex -15 10 0
      vertex -13.5858 1.41421 0
      vertex -13.8244 1.61803 0
    endloop
  endfacet
  facet normal 0 0 -1
    outer loop
      vertex -15 10 0
      vertex -13.8244 1.61803 0
      vertex -14.092 1.78201 0
    endloop
  endfacet
  facet normal 0 0 -1
    outer loop
      vertex -15 10 0
      vertex -14.092 1.78201 0
      vertex -14.382 1.90211 0
    endloop
  endfacet
  facet normal 0 0 -1
    outer loop
      vertex -15 10 0
      vertex -14.382 1.90211 0
      vertex -14.6871 1.97538 0
    endloop
  endfacet
  facet normal 0 0 -1
    outer loop
      vertex -15 10 0
      vertex -14.6871 1.97538 0
      vertex -15 2 0
    endloop
  endfacet
  facet normal 0 0 -1
    outer loop
      vertex -13.218 0.907981 0
      vertex -15 10 0
      vertex 15 10 0
    endloop
  endfacet
  facet normal 0 0 -1
    outer loop
      vertex -15.3129 1.97538 0
      vertex -15 10 0
      vertex -15 2 0
    endloop
  endfacet
  facet normal 0 0 -1
    outer loop
      vertex -16.5643 9.87688 0
      vertex -15.3129 1.97538 0
      vertex -15.618 1.90211 0
    endloop
  endfacet
  facet normal 0 0 -1
    outer loop
      vertex -18.0902 9.51056 0
      vertex -15.618 1.90211 0
      vertex -15.908 1.78201 0
    endloop
  endfacet
  facet normal 0 0 -1
    outer loop
      vertex -19.5399 8.91006 0
      vertex -15.908 1.78201 0
      vertex -16.1756 1.61803 0
    endloop
  endfacet
  facet normal 0 0 -1
    outer loop
      vertex -20.8779 8.09017 0
      vertex -16.1756 1.61803 0
      vertex -16.4142 1.41421 0
    endloop
  endfacet
  facet normal 0 0 -1
    outer loop
      vertex -15.3129 1.97538 0
      vertex -16.5643 9.87688 0
      vertex -15 10 0
    endloop
  endfacet
  facet normal 0 0 -1
    outer loop
      vertex -22.0711 7.07107 0
      vertex -16.4142 1.41421 0
      vertex -16.618 1.17557 0
    endloop
  endfacet
  facet normal 0 0 -1
    outer loop
      vertex -23.0902 5.87785 0
      vertex -16.618 1.17557 0
      vertex -16.782 0.907981 0
    endloop
  endfacet
  facet normal 0 0 -1
    outer loop
      vertex -23.9101 4.5399 0
      vertex -16.782 0.907981 0
      vertex -16.9021 0.618033 0
    endloop
  endfacet
  facet normal 0 0 -1
    outer loop
      vertex -24.5106 3.09017 0
      vertex -16.9021 0.618033 0
      vertex -16.9754 0.312868 0
    endloop
  endfacet
  facet normal 0 0 -1
    outer loop
      vertex -24.8769 1.56434 0
      vertex -16.9754 0.312868 0
      vertex -17 0 0
    endloop
  endfacet
  facet normal -0 0 -1
    outer loop
      vertex -16.618 -1.17557 0
      vertex -23.0902 -5.87785 0
      vertex -16.782 -0.907981 0
    endloop
  endfacet
  facet normal 0 0 -1
    outer loop
      vertex -15.618 1.90211 0
      vertex -18.0902 9.51056 0
      vertex -16.5643 9.87688 0
    endloop
  endfacet
  facet normal 0 0 -1
    outer loop
      vertex -23.9101 -4.5399 0
      vertex -16.782 -0.907981 0
      vertex -23.0902 -5.87785 0
    endloop
  endfacet
  facet normal 0 0 -1
    outer loop
      vertex -15.908 1.78201 0
      vertex -19.5399 8.91006 0
      vertex -18.0902 9.51056 0
    endloop
  endfacet
  facet normal -0 0 -1
    outer loop
      vertex -16.782 -0.907981 0
      vertex -23.9101 -4.5399 0
      vertex -16.9021 -0.618033 0
    endloop
  endfacet
  facet normal 0 0 -1
    outer loop
      vertex -16.1756 1.61803 0
      vertex -20.8779 8.09017 0
      vertex -19.5399 8.91006 0
    endloop
  endfacet
  facet normal 0 0 -1
    outer loop
      vertex -24.5106 -3.09017 0
      vertex -16.9021 -0.618033 0
      vertex -23.9101 -4.5399 0
    endloop
  endfacet
  facet normal 0 0 -1
    outer loop
      vertex -16.4142 1.41421 0
      vertex -22.0711 7.07107 0
      vertex -20.8779 8.09017 0
    endloop
  endfacet
  facet normal -0 0 -1
    outer loop
      vertex -16.9021 -0.618033 0
      vertex -24.5106 -3.09017 0
      vertex -16.9754 -0.312868 0
    endloop
  endfacet
  facet normal 0 0 -1
    outer loop
      vertex -16.618 1.17557 0
      vertex -23.0902 5.87785 0
      vertex -22.0711 7.07107 0
    endloop
  endfacet
  facet normal 0 0 -1
    outer loop
      vertex -24.8769 -1.56434 0
      vertex -16.9754 -0.312868 0
      vertex -24.5106 -3.09017 0
    endloop
  endfacet
  facet normal 0 0 -1
    outer loop
      vertex -16.782 0.907981 0
      vertex -23.9101 4.5399 0
      vertex -23.0902 5.87785 0
    endloop
  endfacet
  facet normal -0 0 -1
    outer loop
      vertex -16.9754 -0.312868 0
      vertex -24.8769 -1.56434 0
      vertex -17 0 0
    endloop
  endfacet
  facet normal 0 0 -1
    outer loop
      vertex -16.9021 0.618033 0
      vertex -24.5106 3.09017 0
      vertex -23.9101 4.5399 0
    endloop
  endfacet
  facet normal 0 0 -1
    outer loop
      vertex -25 0 0
      vertex -17 0 0
      vertex -24.8769 -1.56434 0
    endloop
  endfacet
  facet normal 0 0 -1
    outer loop
      vertex -16.9754 0.312868 0
      vertex -24.8769 1.56434 0
      vertex -24.5106 3.09017 0
    endloop
  endfacet
  facet normal 0 0 -1
    outer loop
      vertex -17 0 0
      vertex -25 0 0
      vertex -24.8769 1.56434 0
    endloop
  endfacet
  facet normal -0.97237 -0.233445 0
    outer loop
      vertex -24.5106 -3.09017 0
      vertex -24.8769 -1.56434 5
      vertex -24.8769 -1.56434 0
    endloop
  endfacet
  facet normal -0.97237 -0.233445 0
    outer loop
      vertex -24.8769 -1.56434 5
      vertex -24.5106 -3.09017 0
      vertex -24.5106 -3.09017 5
    endloop
  endfacet
  facet normal -0.996917 -0.078458 0
    outer loop
      vertex -13 0 0
      vertex -13.0246 0.312868 5
      vertex -13.0246 0.312868 0
    endloop
  endfacet
  facet normal -0.996917 -0.078458 0
    outer loop
      vertex -13.0246 0.312868 5
      vertex -13 0 0
      vertex -13 0 5
    endloop
  endfacet
  facet normal 0.996917 -0.078461 0
    outer loop
      vertex -17 0 5
      vertex -16.9754 0.312868 0
      vertex -16.9754 0.312868 5
    endloop
  endfacet
  facet normal 0.996917 -0.078461 0
    outer loop
      vertex -16.9754 0.312868 0
      vertex -17 0 5
      vertex -17 0 0
    endloop
  endfacet
  facet normal -0.0784608 -0.996917 0
    outer loop
      vertex -15 2 0
      vertex -14.6871 1.97538 5
      vertex -15 2 5
    endloop
  endfacet
  facet normal -0.0784608 -0.996917 -0
    outer loop
      vertex -14.6871 1.97538 5
      vertex -15 2 0
      vertex -14.6871 1.97538 0
    endloop
  endfacet
  facet normal -0.649448 -0.760406 0
    outer loop
      vertex -13.8244 1.61803 0
      vertex -13.5858 1.41421 5
      vertex -13.8244 1.61803 5
    endloop
  endfacet
  facet normal -0.649448 -0.760406 -0
    outer loop
      vertex -13.5858 1.41421 5
      vertex -13.8244 1.61803 0
      vertex -13.5858 1.41421 0
    endloop
  endfacet
  facet normal 0.64945 -0.760405 0
    outer loop
      vertex -16.4142 1.41421 0
      vertex -16.1756 1.61803 5
      vertex -16.4142 1.41421 5
    endloop
  endfacet
  facet normal 0.64945 -0.760405 0
    outer loop
      vertex -16.1756 1.61803 5
      vertex -16.4142 1.41421 0
      vertex -16.1756 1.61803 0
    endloop
  endfacet
  facet normal 0.382683 -0.92388 0
    outer loop
      vertex -15.908 1.78201 0
      vertex -15.618 1.90211 5
      vertex -15.908 1.78201 5
    endloop
  endfacet
  facet normal 0.382683 -0.92388 0
    outer loop
      vertex -15.618 1.90211 5
      vertex -15.908 1.78201 0
      vertex -15.618 1.90211 0
    endloop
  endfacet
  facet normal 0.760404 0.64945 0
    outer loop
      vertex -16.4142 -1.41421 5
      vertex -16.618 -1.17557 0
      vertex -16.618 -1.17557 5
    endloop
  endfacet
  facet normal 0.760404 0.64945 0
    outer loop
      vertex -16.618 -1.17557 0
      vertex -16.4142 -1.41421 5
      vertex -16.4142 -1.41421 0
    endloop
  endfacet
  facet normal -0.92388 -0.382683 0
    outer loop
      vertex -13.0979 0.618033 0
      vertex -13.218 0.907981 5
      vertex -13.218 0.907981 0
    endloop
  endfacet
  facet normal -0.92388 -0.382683 0
    outer loop
      vertex -13.218 0.907981 5
      vertex -13.0979 0.618033 0
      vertex -13.0979 0.618033 5
    endloop
  endfacet
  facet normal -0.97237 -0.233444 0
    outer loop
      vertex -13.0246 0.312868 0
      vertex -13.0979 0.618033 5
      vertex -13.0979 0.618033 0
    endloop
  endfacet
  facet normal -0.97237 -0.233444 0
    outer loop
      vertex -13.0979 0.618033 5
      vertex -13.0246 0.312868 0
      vertex -13.0246 0.312868 5
    endloop
  endfacet
  facet normal -0.85264 -0.5225 0
    outer loop
      vertex -13.218 0.907981 0
      vertex -13.382 1.17557 5
      vertex -13.382 1.17557 0
    endloop
  endfacet
  facet normal -0.85264 -0.5225 0
    outer loop
      vertex -13.382 1.17557 5
      vertex -13.218 0.907981 0
      vertex -13.218 0.907981 5
    endloop
  endfacet
  facet normal -0.382683 -0.92388 0
    outer loop
      vertex -14.382 1.90211 0
      vertex -14.092 1.78201 5
      vertex -14.382 1.90211 5
    endloop
  endfacet
  facet normal -0.382683 -0.92388 -0
    outer loop
      vertex -14.092 1.78201 5
      vertex -14.382 1.90211 0
      vertex -14.092 1.78201 0
    endloop
  endfacet
  facet normal -0.233444 -0.97237 0
    outer loop
      vertex -14.6871 1.97538 0
      vertex -14.382 1.90211 5
      vertex -14.6871 1.97538 5
    endloop
  endfacet
  facet normal -0.233444 -0.97237 -0
    outer loop
      vertex -14.382 1.90211 5
      vertex -14.6871 1.97538 0
      vertex -14.382 1.90211 0
    endloop
  endfacet
  facet normal -0.5225 -0.85264 0
    outer loop
      vertex -14.092 1.78201 0
      vertex -13.8244 1.61803 5
      vertex -14.092 1.78201 5
    endloop
  endfacet
  facet normal -0.5225 -0.85264 -0
    outer loop
      vertex -13.8244 1.61803 5
      vertex -14.092 1.78201 0
      vertex -13.8244 1.61803 0
    endloop
  endfacet
  facet normal 0.852641 -0.522497 0
    outer loop
      vertex -16.782 0.907981 5
      vertex -16.618 1.17557 0
      vertex -16.618 1.17557 5
    endloop
  endfacet
  facet normal 0.852641 -0.522497 0
    outer loop
      vertex -16.618 1.17557 0
      vertex -16.782 0.907981 5
      vertex -16.782 0.907981 0
    endloop
  endfacet
  facet normal 0.760404 -0.64945 0
    outer loop
      vertex -16.618 1.17557 5
      vertex -16.4142 1.41421 0
      vertex -16.4142 1.41421 5
    endloop
  endfacet
  facet normal 0.760404 -0.64945 0
    outer loop
      vertex -16.4142 1.41421 0
      vertex -16.618 1.17557 5
      vertex -16.618 1.17557 0
    endloop
  endfacet
  facet normal 0.92388 -0.382683 0
    outer loop
      vertex -16.9021 0.618033 5
      vertex -16.782 0.907981 0
      vertex -16.782 0.907981 5
    endloop
  endfacet
  facet normal 0.92388 -0.382683 0
    outer loop
      vertex -16.782 0.907981 0
      vertex -16.9021 0.618033 5
      vertex -16.9021 0.618033 0
    endloop
  endfacet
  facet normal 0.522498 -0.85264 0
    outer loop
      vertex -16.1756 1.61803 0
      vertex -15.908 1.78201 5
      vertex -16.1756 1.61803 5
    endloop
  endfacet
  facet normal 0.522498 -0.85264 0
    outer loop
      vertex -15.908 1.78201 5
      vertex -16.1756 1.61803 0
      vertex -15.908 1.78201 0
    endloop
  endfacet
  facet normal 0.078461 -0.996917 0
    outer loop
      vertex -15.3129 1.97538 0
      vertex -15 2 5
      vertex -15.3129 1.97538 5
    endloop
  endfacet
  facet normal 0.078461 -0.996917 0
    outer loop
      vertex -15 2 5
      vertex -15.3129 1.97538 0
      vertex -15 2 0
    endloop
  endfacet
  facet normal -0.760406 0.649448 0
    outer loop
      vertex -13.5858 -1.41421 0
      vertex -13.382 -1.17557 5
      vertex -13.382 -1.17557 0
    endloop
  endfacet
  facet normal -0.760406 0.649448 0
    outer loop
      vertex -13.382 -1.17557 5
      vertex -13.5858 -1.41421 0
      vertex -13.5858 -1.41421 5
    endloop
  endfacet
  facet normal -0.5225 0.85264 0
    outer loop
      vertex -13.8244 -1.61803 0
      vertex -14.092 -1.78201 5
      vertex -13.8244 -1.61803 5
    endloop
  endfacet
  facet normal -0.5225 0.85264 0
    outer loop
      vertex -14.092 -1.78201 5
      vertex -13.8244 -1.61803 0
      vertex -14.092 -1.78201 0
    endloop
  endfacet
  facet normal -0.85264 0.5225 0
    outer loop
      vertex -13.382 -1.17557 0
      vertex -13.218 -0.907981 5
      vertex -13.218 -0.907981 0
    endloop
  endfacet
  facet normal -0.85264 0.5225 0
    outer loop
      vertex -13.218 -0.907981 5
      vertex -13.382 -1.17557 0
      vertex -13.382 -1.17557 5
    endloop
  endfacet
  facet normal -0.97237 0.233444 0
    outer loop
      vertex -13.0979 -0.618033 0
      vertex -13.0246 -0.312868 5
      vertex -13.0246 -0.312868 0
    endloop
  endfacet
  facet normal -0.97237 0.233444 0
    outer loop
      vertex -13.0246 -0.312868 5
      vertex -13.0979 -0.618033 0
      vertex -13.0979 -0.618033 5
    endloop
  endfacet
  facet normal 0.382683 0.92388 -0
    outer loop
      vertex -15.618 -1.90211 0
      vertex -15.908 -1.78201 5
      vertex -15.618 -1.90211 5
    endloop
  endfacet
  facet normal 0.382683 0.92388 0
    outer loop
      vertex -15.908 -1.78201 5
      vertex -15.618 -1.90211 0
      vertex -15.908 -1.78201 0
    endloop
  endfacet
  facet normal 0.64945 0.760405 -0
    outer loop
      vertex -16.1756 -1.61803 0
      vertex -16.4142 -1.41421 5
      vertex -16.1756 -1.61803 5
    endloop
  endfacet
  facet normal 0.64945 0.760405 0
    outer loop
      vertex -16.4142 -1.41421 5
      vertex -16.1756 -1.61803 0
      vertex -16.4142 -1.41421 0
    endloop
  endfacet
  facet normal 0.522498 0.85264 -0
    outer loop
      vertex -15.908 -1.78201 0
      vertex -16.1756 -1.61803 5
      vertex -15.908 -1.78201 5
    endloop
  endfacet
  facet normal 0.522498 0.85264 0
    outer loop
      vertex -16.1756 -1.61803 5
      vertex -15.908 -1.78201 0
      vertex -16.1756 -1.61803 0
    endloop
  endfacet
  facet normal 0.97237 0.233444 0
    outer loop
      vertex -16.9021 -0.618033 5
      vertex -16.9754 -0.312868 0
      vertex -16.9754 -0.312868 5
    endloop
  endfacet
  facet normal 0.97237 0.233444 0
    outer loop
      vertex -16.9754 -0.312868 0
      vertex -16.9021 -0.618033 5
      vertex -16.9021 -0.618033 0
    endloop
  endfacet
  facet normal 0.852641 0.522497 0
    outer loop
      vertex -16.618 -1.17557 5
      vertex -16.782 -0.907981 0
      vertex -16.782 -0.907981 5
    endloop
  endfacet
  facet normal 0.852641 0.522497 0
    outer loop
      vertex -16.782 -0.907981 0
      vertex -16.618 -1.17557 5
      vertex -16.618 -1.17557 0
    endloop
  endfacet
  facet normal 0.92388 0.382683 0
    outer loop
      vertex -16.782 -0.907981 5
      vertex -16.9021 -0.618033 0
      vertex -16.9021 -0.618033 5
    endloop
  endfacet
  facet normal 0.92388 0.382683 0
    outer loop
      vertex -16.9021 -0.618033 0
      vertex -16.782 -0.907981 5
      vertex -16.782 -0.907981 0
    endloop
  endfacet
  facet normal 0.233444 -0.97237 0
    outer loop
      vertex -15.618 1.90211 0
      vertex -15.3129 1.97538 5
      vertex -15.618 1.90211 5
    endloop
  endfacet
  facet normal 0.233444 -0.97237 0
    outer loop
      vertex -15.3129 1.97538 5
      vertex -15.618 1.90211 0
      vertex -15.3129 1.97538 0
    endloop
  endfacet
  facet normal -0.996917 0.078458 0
    outer loop
      vertex -13.0246 -0.312868 0
      vertex -13 0 5
      vertex -13 0 0
    endloop
  endfacet
  facet normal -0.996917 0.078458 0
    outer loop
      vertex -13 0 5
      vertex -13.0246 -0.312868 0
      vertex -13.0246 -0.312868 5
    endloop
  endfacet
  facet normal -0.382683 0.92388 0
    outer loop
      vertex -14.092 -1.78201 0
      vertex -14.382 -1.90211 5
      vertex -14.092 -1.78201 5
    endloop
  endfacet
  facet normal -0.382683 0.92388 0
    outer loop
      vertex -14.382 -1.90211 5
      vertex -14.092 -1.78201 0
      vertex -14.382 -1.90211 0
    endloop
  endfacet
  facet normal -0.0784608 0.996917 0
    outer loop
      vertex -14.6871 -1.97538 0
      vertex -15 -2 5
      vertex -14.6871 -1.97538 5
    endloop
  endfacet
  facet normal -0.0784608 0.996917 0
    outer loop
      vertex -15 -2 5
      vertex -14.6871 -1.97538 0
      vertex -15 -2 0
    endloop
  endfacet
  facet normal -0.233444 0.97237 0
    outer loop
      vertex -14.382 -1.90211 0
      vertex -14.6871 -1.97538 5
      vertex -14.382 -1.90211 5
    endloop
  endfacet
  facet normal -0.233444 0.97237 0
    outer loop
      vertex -14.6871 -1.97538 5
      vertex -14.382 -1.90211 0
      vertex -14.6871 -1.97538 0
    endloop
  endfacet
  facet normal -0.649448 0.760406 0
    outer loop
      vertex -13.5858 -1.41421 0
      vertex -13.8244 -1.61803 5
      vertex -13.5858 -1.41421 5
    endloop
  endfacet
  facet normal -0.649448 0.760406 0
    outer loop
      vertex -13.8244 -1.61803 5
      vertex -13.5858 -1.41421 0
      vertex -13.8244 -1.61803 0
    endloop
  endfacet
  facet normal -0.92388 0.382683 0
    outer loop
      vertex -13.218 -0.907981 0
      vertex -13.0979 -0.618033 5
      vertex -13.0979 -0.618033 0
    endloop
  endfacet
  facet normal -0.92388 0.382683 0
    outer loop
      vertex -13.0979 -0.618033 5
      vertex -13.218 -0.907981 0
      vertex -13.218 -0.907981 5
    endloop
  endfacet
  facet normal 0.233444 0.97237 -0
    outer loop
      vertex -15.3129 -1.97538 0
      vertex -15.618 -1.90211 5
      vertex -15.3129 -1.97538 5
    endloop
  endfacet
  facet normal 0.233444 0.97237 0
    outer loop
      vertex -15.618 -1.90211 5
      vertex -15.3129 -1.97538 0
      vertex -15.618 -1.90211 0
    endloop
  endfacet
  facet normal 0.078461 0.996917 -0
    outer loop
      vertex -15 -2 0
      vertex -15.3129 -1.97538 5
      vertex -15 -2 5
    endloop
  endfacet
  facet normal 0.078461 0.996917 0
    outer loop
      vertex -15.3129 -1.97538 5
      vertex -15 -2 0
      vertex -15.3129 -1.97538 0
    endloop
  endfacet
  facet normal 0.996917 0.078461 0
    outer loop
      vertex -16.9754 -0.312868 5
      vertex -17 0 0
      vertex -17 0 5
    endloop
  endfacet
  facet normal 0.996917 0.078461 0
    outer loop
      vertex -17 0 0
      vertex -16.9754 -0.312868 5
      vertex -16.9754 -0.312868 0
    endloop
  endfacet
  facet normal -0.760406 -0.649448 0
    outer loop
      vertex -13.382 1.17557 0
      vertex -13.5858 1.41421 5
      vertex -13.5858 1.41421 0
    endloop
  endfacet
  facet normal -0.760406 -0.649448 0
    outer loop
      vertex -13.5858 1.41421 5
      vertex -13.382 1.17557 0
      vertex -13.382 1.17557 5
    endloop
  endfacet
  facet normal 0.97237 -0.233444 0
    outer loop
      vertex -16.9754 0.312868 5
      vertex -16.9021 0.618033 0
      vertex -16.9021 0.618033 5
    endloop
  endfacet
  facet normal 0.97237 -0.233444 0
    outer loop
      vertex -16.9021 0.618033 0
      vertex -16.9754 0.312868 5
      vertex -16.9754 0.312868 0
    endloop
  endfacet
  facet normal -0.996917 -0.078461 0
    outer loop
      vertex 17 0 0
      vertex 16.9754 0.312868 5
      vertex 16.9754 0.312868 0
    endloop
  endfacet
  facet normal -0.996917 -0.078461 0
    outer loop
      vertex 16.9754 0.312868 5
      vertex 17 0 0
      vertex 17 0 5
    endloop
  endfacet
  facet normal 0.996917 0.078458 0
    outer loop
      vertex 13.0246 -0.312868 5
      vertex 13 0 0
      vertex 13 0 5
    endloop
  endfacet
  facet normal 0.996917 0.078458 0
    outer loop
      vertex 13 0 0
      vertex 13.0246 -0.312868 5
      vertex 13.0246 -0.312868 0
    endloop
  endfacet
  facet normal 0.0784608 -0.996917 0
    outer loop
      vertex 14.6871 1.97538 0
      vertex 15 2 5
      vertex 14.6871 1.97538 5
    endloop
  endfacet
  facet normal 0.0784608 -0.996917 0
    outer loop
      vertex 15 2 5
      vertex 14.6871 1.97538 0
      vertex 15 2 0
    endloop
  endfacet
  facet normal -0.078461 0.996917 0
    outer loop
      vertex 15.3129 -1.97538 0
      vertex 15 -2 5
      vertex 15.3129 -1.97538 5
    endloop
  endfacet
  facet normal -0.078461 0.996917 0
    outer loop
      vertex 15 -2 5
      vertex 15.3129 -1.97538 0
      vertex 15 -2 0
    endloop
  endfacet
  facet normal -0.64945 -0.760405 0
    outer loop
      vertex 16.1756 1.61803 0
      vertex 16.4142 1.41421 5
      vertex 16.1756 1.61803 5
    endloop
  endfacet
  facet normal -0.64945 -0.760405 -0
    outer loop
      vertex 16.4142 1.41421 5
      vertex 16.1756 1.61803 0
      vertex 16.4142 1.41421 0
    endloop
  endfacet
  facet normal 0.760406 -0.649448 0
    outer loop
      vertex 13.382 1.17557 5
      vertex 13.5858 1.41421 0
      vertex 13.5858 1.41421 5
    endloop
  endfacet
  facet normal 0.760406 -0.649448 0
    outer loop
      vertex 13.5858 1.41421 0
      vertex 13.382 1.17557 5
      vertex 13.382 1.17557 0
    endloop
  endfacet
  facet normal 0.382683 -0.92388 0
    outer loop
      vertex 14.092 1.78201 0
      vertex 14.382 1.90211 5
      vertex 14.092 1.78201 5
    endloop
  endfacet
  facet normal 0.382683 -0.92388 0
    outer loop
      vertex 14.382 1.90211 5
      vertex 14.092 1.78201 0
      vertex 14.382 1.90211 0
    endloop
  endfacet
  facet normal -0.852641 0.522497 0
    outer loop
      vertex 16.618 -1.17557 0
      vertex 16.782 -0.907981 5
      vertex 16.782 -0.907981 0
    endloop
  endfacet
  facet normal -0.852641 0.522497 0
    outer loop
      vertex 16.782 -0.907981 5
      vertex 16.618 -1.17557 0
      vertex 16.618 -1.17557 5
    endloop
  endfacet
  facet normal -0.92388 -0.382683 0
    outer loop
      vertex 16.9021 0.618033 0
      vertex 16.782 0.907981 5
      vertex 16.782 0.907981 0
    endloop
  endfacet
  facet normal -0.92388 -0.382683 0
    outer loop
      vertex 16.782 0.907981 5
      vertex 16.9021 0.618033 0
      vertex 16.9021 0.618033 5
    endloop
  endfacet
  facet normal -0.97237 -0.233444 0
    outer loop
      vertex 16.9754 0.312868 0
      vertex 16.9021 0.618033 5
      vertex 16.9021 0.618033 0
    endloop
  endfacet
  facet normal -0.97237 -0.233444 0
    outer loop
      vertex 16.9021 0.618033 5
      vertex 16.9754 0.312868 0
      vertex 16.9754 0.312868 5
    endloop
  endfacet
  facet normal -0.852641 -0.522497 0
    outer loop
      vertex 16.782 0.907981 0
      vertex 16.618 1.17557 5
      vertex 16.618 1.17557 0
    endloop
  endfacet
  facet normal -0.852641 -0.522497 0
    outer loop
      vertex 16.618 1.17557 5
      vertex 16.782 0.907981 0
      vertex 16.782 0.907981 5
    endloop
  endfacet
  facet normal -0.382683 -0.92388 0
    outer loop
      vertex 15.618 1.90211 0
      vertex 15.908 1.78201 5
      vertex 15.618 1.90211 5
    endloop
  endfacet
  facet normal -0.382683 -0.92388 -0
    outer loop
      vertex 15.908 1.78201 5
      vertex 15.618 1.90211 0
      vertex 15.908 1.78201 0
    endloop
  endfacet
  facet normal -0.522498 -0.85264 0
    outer loop
      vertex 15.908 1.78201 0
      vertex 16.1756 1.61803 5
      vertex 15.908 1.78201 5
    endloop
  endfacet
  facet normal -0.522498 -0.85264 -0
    outer loop
      vertex 16.1756 1.61803 5
      vertex 15.908 1.78201 0
      vertex 16.1756 1.61803 0
    endloop
  endfacet
  facet normal 0.92388 -0.382683 0
    outer loop
      vertex 13.0979 0.618033 5
      vertex 13.218 0.907981 0
      vertex 13.218 0.907981 5
    endloop
  endfacet
  facet normal 0.92388 -0.382683 0
    outer loop
      vertex 13.218 0.907981 0
      vertex 13.0979 0.618033 5
      vertex 13.0979 0.618033 0
    endloop
  endfacet
  facet normal 0.85264 -0.5225 0
    outer loop
      vertex 13.218 0.907981 5
      vertex 13.382 1.17557 0
      vertex 13.382 1.17557 5
    endloop
  endfacet
  facet normal 0.85264 -0.5225 0
    outer loop
      vertex 13.382 1.17557 0
      vertex 13.218 0.907981 5
      vertex 13.218 0.907981 0
    endloop
  endfacet
  facet normal 0.97237 -0.233444 0
    outer loop
      vertex 13.0246 0.312868 5
      vertex 13.0979 0.618033 0
      vertex 13.0979 0.618033 5
    endloop
  endfacet
  facet normal 0.97237 -0.233444 0
    outer loop
      vertex 13.0979 0.618033 0
      vertex 13.0246 0.312868 5
      vertex 13.0246 0.312868 0
    endloop
  endfacet
  facet normal 0.5225 -0.85264 0
    outer loop
      vertex 13.8244 1.61803 0
      vertex 14.092 1.78201 5
      vertex 13.8244 1.61803 5
    endloop
  endfacet
  facet normal 0.5225 -0.85264 0
    outer loop
      vertex 14.092 1.78201 5
      vertex 13.8244 1.61803 0
      vertex 14.092 1.78201 0
    endloop
  endfacet
  facet normal 0.233444 -0.97237 0
    outer loop
      vertex 14.382 1.90211 0
      vertex 14.6871 1.97538 5
      vertex 14.382 1.90211 5
    endloop
  endfacet
  facet normal 0.233444 -0.97237 0
    outer loop
      vertex 14.6871 1.97538 5
      vertex 14.382 1.90211 0
      vertex 14.6871 1.97538 0
    endloop
  endfacet
  facet normal -0.233444 0.97237 0
    outer loop
      vertex 15.618 -1.90211 0
      vertex 15.3129 -1.97538 5
      vertex 15.618 -1.90211 5
    endloop
  endfacet
  facet normal -0.233444 0.97237 0
    outer loop
      vertex 15.3129 -1.97538 5
      vertex 15.618 -1.90211 0
      vertex 15.3129 -1.97538 0
    endloop
  endfacet
  facet normal -0.760404 -0.64945 0
    outer loop
      vertex 16.618 1.17557 0
      vertex 16.4142 1.41421 5
      vertex 16.4142 1.41421 0
    endloop
  endfacet
  facet normal -0.760404 -0.64945 0
    outer loop
      vertex 16.4142 1.41421 5
      vertex 16.618 1.17557 0
      vertex 16.618 1.17557 5
    endloop
  endfacet
  facet normal -0.233444 -0.97237 0
    outer loop
      vertex 15.3129 1.97538 0
      vertex 15.618 1.90211 5
      vertex 15.3129 1.97538 5
    endloop
  endfacet
  facet normal -0.233444 -0.97237 -0
    outer loop
      vertex 15.618 1.90211 5
      vertex 15.3129 1.97538 0
      vertex 15.618 1.90211 0
    endloop
  endfacet
  facet normal -0.078461 -0.996917 0
    outer loop
      vertex 15 2 0
      vertex 15.3129 1.97538 5
      vertex 15 2 5
    endloop
  endfacet
  facet normal -0.078461 -0.996917 -0
    outer loop
      vertex 15.3129 1.97538 5
      vertex 15 2 0
      vertex 15.3129 1.97538 0
    endloop
  endfacet
  facet normal 0.996917 -0.078458 0
    outer loop
      vertex 13 0 5
      vertex 13.0246 0.312868 0
      vertex 13.0246 0.312868 5
    endloop
  endfacet
  facet normal 0.996917 -0.078458 0
    outer loop
      vertex 13.0246 0.312868 0
      vertex 13 0 5
      vertex 13 0 0
    endloop
  endfacet
  facet normal -0.996917 0.078461 0
    outer loop
      vertex 16.9754 -0.312868 0
      vertex 17 0 5
      vertex 17 0 0
    endloop
  endfacet
  facet normal -0.996917 0.078461 0
    outer loop
      vertex 17 0 5
      vertex 16.9754 -0.312868 0
      vertex 16.9754 -0.312868 5
    endloop
  endfacet
  facet normal -0.760404 0.64945 0
    outer loop
      vertex 16.4142 -1.41421 0
      vertex 16.618 -1.17557 5
      vertex 16.618 -1.17557 0
    endloop
  endfacet
  facet normal -0.760404 0.64945 0
    outer loop
      vertex 16.618 -1.17557 5
      vertex 16.4142 -1.41421 0
      vertex 16.4142 -1.41421 5
    endloop
  endfacet
  facet normal -0.92388 0.382683 0
    outer loop
      vertex 16.782 -0.907981 0
      vertex 16.9021 -0.618033 5
      vertex 16.9021 -0.618033 0
    endloop
  endfacet
  facet normal -0.92388 0.382683 0
    outer loop
      vertex 16.9021 -0.618033 5
      vertex 16.782 -0.907981 0
      vertex 16.782 -0.907981 5
    endloop
  endfacet
  facet normal -0.97237 0.233444 0
    outer loop
      vertex 16.9021 -0.618033 0
      vertex 16.9754 -0.312868 5
      vertex 16.9754 -0.312868 0
    endloop
  endfacet
  facet normal -0.97237 0.233444 0
    outer loop
      vertex 16.9754 -0.312868 5
      vertex 16.9021 -0.618033 0
      vertex 16.9021 -0.618033 5
    endloop
  endfacet
  facet normal 0.85264 0.5225 0
    outer loop
      vertex 13.382 -1.17557 5
      vertex 13.218 -0.907981 0
      vertex 13.218 -0.907981 5
    endloop
  endfacet
  facet normal 0.85264 0.5225 0
    outer loop
      vertex 13.218 -0.907981 0
      vertex 13.382 -1.17557 5
      vertex 13.382 -1.17557 0
    endloop
  endfacet
  facet normal -0.382683 0.92388 0
    outer loop
      vertex 15.908 -1.78201 0
      vertex 15.618 -1.90211 5
      vertex 15.908 -1.78201 5
    endloop
  endfacet
  facet normal -0.382683 0.92388 0
    outer loop
      vertex 15.618 -1.90211 5
      vertex 15.908 -1.78201 0
      vertex 15.618 -1.90211 0
    endloop
  endfacet
  facet normal 0.649448 -0.760406 0
    outer loop
      vertex 13.5858 1.41421 0
      vertex 13.8244 1.61803 5
      vertex 13.5858 1.41421 5
    endloop
  endfacet
  facet normal 0.649448 -0.760406 0
    outer loop
      vertex 13.8244 1.61803 5
      vertex 13.5858 1.41421 0
      vertex 13.8244 1.61803 0
    endloop
  endfacet
  facet normal -0.522498 0.85264 0
    outer loop
      vertex 16.1756 -1.61803 0
      vertex 15.908 -1.78201 5
      vertex 16.1756 -1.61803 5
    endloop
  endfacet
  facet normal -0.522498 0.85264 0
    outer loop
      vertex 15.908 -1.78201 5
      vertex 16.1756 -1.61803 0
      vertex 15.908 -1.78201 0
    endloop
  endfacet
  facet normal -0.64945 0.760405 0
    outer loop
      vertex 16.4142 -1.41421 0
      vertex 16.1756 -1.61803 5
      vertex 16.4142 -1.41421 5
    endloop
  endfacet
  facet normal -0.64945 0.760405 0
    outer loop
      vertex 16.1756 -1.61803 5
      vertex 16.4142 -1.41421 0
      vertex 16.1756 -1.61803 0
    endloop
  endfacet
  facet normal 0.233444 0.97237 -0
    outer loop
      vertex 14.6871 -1.97538 0
      vertex 14.382 -1.90211 5
      vertex 14.6871 -1.97538 5
    endloop
  endfacet
  facet normal 0.233444 0.97237 0
    outer loop
      vertex 14.382 -1.90211 5
      vertex 14.6871 -1.97538 0
      vertex 14.382 -1.90211 0
    endloop
  endfacet
  facet normal 0.5225 0.85264 -0
    outer loop
      vertex 14.092 -1.78201 0
      vertex 13.8244 -1.61803 5
      vertex 14.092 -1.78201 5
    endloop
  endfacet
  facet normal 0.5225 0.85264 0
    outer loop
      vertex 13.8244 -1.61803 5
      vertex 14.092 -1.78201 0
      vertex 13.8244 -1.61803 0
    endloop
  endfacet
  facet normal 0.92388 0.382683 0
    outer loop
      vertex 13.218 -0.907981 5
      vertex 13.0979 -0.618033 0
      vertex 13.0979 -0.618033 5
    endloop
  endfacet
  facet normal 0.92388 0.382683 0
    outer loop
      vertex 13.0979 -0.618033 0
      vertex 13.218 -0.907981 5
      vertex 13.218 -0.907981 0
    endloop
  endfacet
  facet normal 0.97237 0.233444 0
    outer loop
      vertex 13.0979 -0.618033 5
      vertex 13.0246 -0.312868 0
      vertex 13.0246 -0.312868 5
    endloop
  endfacet
  facet normal 0.97237 0.233444 0
    outer loop
      vertex 13.0246 -0.312868 0
      vertex 13.0979 -0.618033 5
      vertex 13.0979 -0.618033 0
    endloop
  endfacet
  facet normal 0.0784608 0.996917 -0
    outer loop
      vertex 15 -2 0
      vertex 14.6871 -1.97538 5
      vertex 15 -2 5
    endloop
  endfacet
  facet normal 0.0784608 0.996917 0
    outer loop
      vertex 14.6871 -1.97538 5
      vertex 15 -2 0
      vertex 14.6871 -1.97538 0
    endloop
  endfacet
  facet normal 0.382683 0.92388 -0
    outer loop
      vertex 14.382 -1.90211 0
      vertex 14.092 -1.78201 5
      vertex 14.382 -1.90211 5
    endloop
  endfacet
  facet normal 0.382683 0.92388 0
    outer loop
      vertex 14.092 -1.78201 5
      vertex 14.382 -1.90211 0
      vertex 14.092 -1.78201 0
    endloop
  endfacet
  facet normal 0.649448 0.760406 -0
    outer loop
      vertex 13.8244 -1.61803 0
      vertex 13.5858 -1.41421 5
      vertex 13.8244 -1.61803 5
    endloop
  endfacet
  facet normal 0.649448 0.760406 0
    outer loop
      vertex 13.5858 -1.41421 5
      vertex 13.8244 -1.61803 0
      vertex 13.5858 -1.41421 0
    endloop
  endfacet
  facet normal 0.760406 0.649448 0
    outer loop
      vertex 13.5858 -1.41421 5
      vertex 13.382 -1.17557 0
      vertex 13.382 -1.17557 5
    endloop
  endfacet
  facet normal 0.760406 0.649448 0
    outer loop
      vertex 13.382 -1.17557 0
      vertex 13.5858 -1.41421 5
      vertex 13.5858 -1.41421 0
    endloop
  endfacet
  facet normal -1 0 0
    outer loop
      vertex -8 -10 5
      vertex -8 0 20
      vertex -8 0 5
    endloop
  endfacet
  facet normal -1 -0 0
    outer loop
      vertex -8 0 20
      vertex -8 -10 5
      vertex -8 -10 20
    endloop
  endfacet
  facet normal -0 0 1
    outer loop
      vertex -8 0 20
      vertex 8 -10 20
      vertex 8 0 20
    endloop
  endfacet
  facet normal 0 0 1
    outer loop
      vertex 8 -10 20
      vertex -8 0 20
      vertex -8 -10 20
    endloop
  endfacet
  facet normal 1 -0 0
    outer loop
      vertex 8 -10 20
      vertex 8 0 5
      vertex 8 0 20
    endloop
  endfacet
  facet normal 1 0 0
    outer loop
      vertex 8 0 5
      vertex 8 -10 20
      vertex 8 -10 5
    endloop
  endfacet
  facet normal 0 1 0
    outer loop
      vertex 8 0 20
      vertex 5 0 8
      vertex -8 0 20
    endloop
  endfacet
  facet normal 0 1 -0
    outer loop
      vertex 8 0 5
      vertex 5 0 8
      vertex 8 0 20
    endloop
  endfacet
  facet normal 0 1 0
    outer loop
      vertex 5 0 8
      vertex 8 0 5
      vertex 5 0 5
    endloop
  endfacet
  facet normal 0 1 -0
    outer loop
      vertex -5 0 8
      vertex -8 0 20
      vertex 5 0 8
    endloop
  endfacet
  facet normal 0 1 0
    outer loop
      vertex -8 0 5
      vertex -5 0 8
      vertex -5 0 5
    endloop
  endfacet
  facet normal 0 1 0
    outer loop
      vertex -5 0 8
      vertex -8 0 5
      vertex -8 0 20
    endloop
  endfacet
  facet normal 1 0 0
    outer loop
      vertex -5 -7 16
      vertex -5 -10 16
      vertex -5 -7 8
    endloop
  endfacet
  facet normal 1 -0 0
    outer loop
      vertex -5 -7 8
      vertex -5 0 5
      vertex -5 0 8
    endloop
  endfacet
  facet normal 1 0 0
    outer loop
      vertex -5 -7 8
      vertex -5 -10 5
      vertex -5 0 5
    endloop
  endfacet
  facet normal 1 0 0
    outer loop
      vertex -5 -10 5
      vertex -5 -7 8
      vertex -5 -10 16
    endloop
  endfacet
  facet normal 0 0 -1
    outer loop
      vertex -5 -10 16
      vertex 5 -7 16
      vertex 5 -10 16
    endloop
  endfacet
  facet normal -0 0 -1
    outer loop
      vertex 5 -7 16
      vertex -5 -10 16
      vertex -5 -7 16
    endloop
  endfacet
  facet normal -1 0 0
    outer loop
      vertex 5 0 5
      vertex 5 -7 8
      vertex 5 0 8
    endloop
  endfacet
  facet normal -1 0 0
    outer loop
      vertex 5 -10 5
      vertex 5 -7 8
      vertex 5 0 5
    endloop
  endfacet
  facet normal -1 0 0
    outer loop
      vertex 5 -10 16
      vertex 5 -7 8
      vertex 5 -10 5
    endloop
  endfacet
  facet normal -1 0 0
    outer loop
      vertex 5 -7 8
      vertex 5 -10 16
      vertex 5 -7 16
    endloop
  endfacet
  facet normal 0 -1 0
    outer loop
      vertex -5 -7 8
      vertex 5 -7 16
      vertex -5 -7 16
    endloop
  endfacet
  facet normal 0 -1 -0
    outer loop
      vertex 5 -7 16
      vertex -5 -7 8
      vertex 5 -7 8
    endloop
  endfacet
  facet normal 0 0 -1
    outer loop
      vertex -5 -7 8
      vertex 5 0 8
      vertex 5 -7 8
    endloop
  endfacet
  facet normal -0 0 -1
    outer loop
      vertex 5 0 8
      vertex -5 -7 8
      vertex -5 0 8
    endloop
  endfacet
endsolid OpenSCAD_Model
